<?xml version="1.0" encoding="UTF-8" standalone="no"?>
<svg
   xmlns:dc="http://purl.org/dc/elements/1.1/"
   xmlns:cc="http://creativecommons.org/ns#"
   xmlns:rdf="http://www.w3.org/1999/02/22-rdf-syntax-ns#"
   xmlns:svg="http://www.w3.org/2000/svg"
   xmlns="http://www.w3.org/2000/svg"
   width="210mm"
   height="297mm"
   viewBox="0 0 210 297"
   version="1.1"
   id="svg116">
  <defs
     id="defs110" />
  <metadata
     id="metadata113">
    <rdf:RDF>
      <cc:Work
         rdf:about="">
        <dc:format>image/svg+xml</dc:format>
        <dc:type
           rdf:resource="http://purl.org/dc/dcmitype/StillImage" />
        <dc:title></dc:title>
      </cc:Work>
    </rdf:RDF>
  </metadata>
  <g
     id="layer1">
    <g
       id="g132"
       transform="matrix(1.344208,0,0,1.344208,-37.953522,-28.131193)">
      <path
         style="fill:#000000;fill-opacity:1;stroke-width:0.0846667"
         d="m 110.31462,73.106879 c -0.62253,-0.287316 -0.889,-0.724198 -0.889,-1.457528 0,-1.147295 0.93851,-1.764479 2.68817,-1.767792 l 0.6985,-0.0013 v -0.299053 c 0,-0.400704 -0.19709,-0.849865 -0.42688,-0.972845 -0.3151,-0.168636 -1.33081,-0.07163 -1.82841,0.17463 l -0.43192,0.21376 -0.22502,-0.400303 -0.22503,-0.400302 0.3198,-0.218509 c 0.47173,-0.322329 1.30164,-0.552711 1.99105,-0.552711 0.75937,0 1.16661,0.124268 1.58728,0.484342 0.5328,0.456062 0.59379,0.786183 0.59379,3.214025 v 2.058966 h -0.54514 -0.54515 l -0.0571,-0.381 c -0.0647,-0.431548 -0.13051,-0.468378 -0.32003,-0.179134 -0.0727,0.111027 -0.33225,0.301527 -0.5767,0.423333 -0.54906,0.273614 -1.29364,0.298916 -1.80817,0.06144 z m 1.88875,-1.027375 c 0.28543,-0.174018 0.6036,-0.732688 0.60705,-1.065927 0.002,-0.14824 -0.0633,-0.187921 -0.37738,-0.230973 -0.57048,-0.07819 -1.23544,0.07175 -1.46225,0.329731 -0.24328,0.276711 -0.25333,0.737067 -0.0212,0.969235 0.23052,0.230522 0.87401,0.229462 1.25375,-0.0021 z m 5.31872,1.093397 c -0.4618,-0.108443 -1.42443,-0.630052 -1.70691,-0.924896 -0.2647,-0.276284 -0.28174,-0.224587 0.28179,-0.854973 l 0.19924,-0.222871 0.41584,0.27984 c 1.4878,1.001215 3.0429,0.778563 3.0429,-0.43567 0,-0.50729 -0.44327,-0.857865 -1.52801,-1.208468 -1.07453,-0.347305 -1.47762,-0.540735 -1.83559,-0.880855 -0.56403,-0.535906 -0.67706,-1.60113 -0.25713,-2.423202 0.22344,-0.437427 0.79819,-0.875408 1.36375,-1.039225 0.58572,-0.169662 1.71631,-0.123514 2.27724,0.09295 0.49447,0.190818 1.26142,0.670128 1.305,0.815566 0.0132,0.04407 -0.11911,0.245772 -0.29404,0.448214 l -0.31806,0.368076 -0.56881,-0.312656 c -0.65046,-0.35754 -1.35417,-0.470039 -1.87174,-0.299227 -0.46916,0.154837 -0.64327,0.387026 -0.64327,0.857836 0,0.339865 0.0379,0.431735 0.25268,0.612457 0.13897,0.116939 0.45329,0.285431 0.6985,0.374427 0.2452,0.089 0.74513,0.268744 1.11095,0.399438 1.0936,0.390701 1.59697,0.863569 1.7599,1.653239 0.24708,1.197632 -0.43986,2.308486 -1.64975,2.667783 -0.46362,0.137679 -1.51452,0.154319 -2.03448,0.03221 z m 7.54294,0.0068 c -1.3904,-0.349857 -2.27105,-1.614375 -2.40119,-3.447857 -0.17102,-2.409287 1.02169,-4.130938 3.03122,-4.375506 0.99771,-0.121425 2.0981,0.257286 2.66209,0.916197 0.31761,0.371053 0.62647,1.107745 0.62647,1.494257 v 0.250824 h -0.71967 c -0.66791,0 -0.71966,-0.01242 -0.71966,-0.172706 0,-0.294889 -0.33252,-0.842025 -0.61725,-1.015632 -0.55009,-0.335404 -1.68162,-0.167833 -2.10339,0.311496 -0.62398,0.709134 -0.81272,2.179184 -0.44701,3.481752 0.16608,0.591529 0.69337,1.149324 1.22031,1.290898 0.73189,0.196637 1.74489,-0.05314 2.44319,-0.60243 l 0.22321,-0.175578 0.3584,0.4096 c 0.19711,0.22528 0.35861,0.4477 0.35888,0.494267 8.5e-4,0.1446 -0.94683,0.793917 -1.43634,0.984137 -0.52826,0.20527 -1.93272,0.293802 -2.47926,0.156281 z M 101.72095,69.342149 V 65.47757 l 1.5875,0.0013 c 1.75605,0.0014 2.38442,0.0999 3.09133,0.484647 1.22127,0.664699 1.82596,2.19197 1.59379,4.025434 -0.16264,1.284339 -0.67047,2.166316 -1.51062,2.623586 -0.72535,0.394783 -1.28408,0.493478 -3.08983,0.545794 l -1.67217,0.04845 v -3.864579 z m 3.68657,2.310304 c 0.81959,-0.410439 1.20165,-1.293961 1.11418,-2.57655 -0.0594,-0.870956 -0.24184,-1.377451 -0.63406,-1.760267 -0.44324,-0.432607 -0.89424,-0.568066 -1.89133,-0.568066 h -0.83602 v 2.593208 2.593209 l 0.91805,-0.03782 c 0.75419,-0.03107 0.99143,-0.07457 1.32918,-0.243709 z m 25.18477,-2.32255 V 65.47757 h 0.71966 0.71967 v 1.566333 1.566333 h 1.60867 1.60866 V 67.043903 65.47757 h 0.71967 0.71967 v 3.852333 3.852333 h -0.71967 -0.71967 v -1.651 -1.651 h -1.60866 -1.60867 v 1.651 1.651 h -0.71967 -0.71966 z m -91.064329,-4.296833 -0.248673,-0.275167 0.275166,0.248674 c 0.256495,0.231798 0.314084,0.301659 0.248674,0.301659 -0.01457,0 -0.138396,-0.123825 -0.275167,-0.275166 z m 63.161989,-5.233948 c -0.14226,-0.04135 -0.35181,-0.174255 -0.46566,-0.295352 -0.20629,-0.219425 -0.20709,-0.227248 -0.23238,-2.287856 l -0.0254,-2.067677 h -0.37679 -0.3768 v -0.413283 -0.413282 l 0.37372,-0.0941 0.37372,-0.0941 0.0546,-0.65678 c 0.03,-0.36123 0.0623,-0.713932 0.0717,-0.783782 0.013,-0.09694 0.16216,-0.132888 0.63,-0.151876 l 0.61294,-0.02488 v 0.808042 0.808043 h 0.508 0.508 v 0.508 0.508 h -0.50968 -0.50969 l 0.0229,1.799166 0.0228,1.799167 0.478,0.02513 c 0.52105,0.02739 0.5767,0.09124 0.57918,0.664681 0.001,0.261163 -0.01,0.268336 -0.53494,0.359833 -0.61641,0.107343 -0.84302,0.10789 -1.20424,0.0029 z m 11.84477,0.0023 c -0.77978,-0.154275 -1.39624,-0.648174 -1.73927,-1.393493 -0.16899,-0.367186 -0.19483,-0.558087 -0.19483,-1.439334 0,-0.862638 0.0276,-1.075756 0.18296,-1.411873 0.54272,-1.174335 1.79092,-1.784843 3.09546,-1.514022 0.51791,0.107517 1.21105,0.541778 1.11439,0.698177 -0.0361,0.0584 -0.0203,0.07121 0.041,0.03332 0.0652,-0.04033 0.17807,0.108515 0.32702,0.431418 0.18435,0.399647 0.23395,0.649277 0.26198,1.318484 l 0.0346,0.8255 h -1.83018 c -1.78338,0 -1.83018,0.0044 -1.83018,0.172053 0,0.271994 0.21168,0.698038 0.46122,0.92828 0.19509,0.180007 0.32664,0.215764 0.88745,0.241232 0.55464,0.02519 0.74312,-0.0043 1.19593,-0.187215 0.29564,-0.119414 0.54013,-0.208919 0.54332,-0.198899 0.003,0.01002 0.0907,0.20021 0.1946,0.422647 0.10385,0.222438 0.18881,0.424465 0.18881,0.448949 0,0.09633 -1.08468,0.544971 -1.51475,0.626533 -0.52003,0.09862 -0.9146,0.09813 -1.41948,-0.0018 z m 1.79774,-3.742561 c -0.12212,-0.76368 -0.61717,-1.155706 -1.2981,-1.027962 -0.39427,0.07397 -0.84346,0.483237 -0.94954,0.865162 -0.15094,0.543413 -0.19599,0.522201 1.10895,0.522201 h 1.19616 z m 14.89483,3.708708 c -0.42548,-0.156926 -0.84928,-0.610146 -0.96701,-1.03415 -0.053,-0.190935 -0.0906,-1.209271 -0.0908,-2.463327 l -4.8e-4,-2.137833 h 0.67734 0.67733 v 1.907719 c 0,2.04833 0.0555,2.382751 0.42851,2.582385 0.31932,0.170898 0.97426,0.05642 1.33166,-0.23276 l 0.31416,-0.254207 0.0227,-2.001568 0.0227,-2.001569 h 0.6758 0.6758 v 2.797868 2.797868 l -0.5715,-0.02503 c -0.53855,-0.02359 -0.57295,-0.03724 -0.59681,-0.236701 -0.0513,-0.428945 -0.0876,-0.450213 -0.36717,-0.215 -0.66068,0.555923 -1.56048,0.764049 -2.23218,0.51631 z m 16.20126,-0.0058 c -0.71752,-0.230127 -1.18254,-1.06843 -1.01203,-1.82442 0.21919,-0.971899 1.0554,-1.446504 2.54857,-1.446504 h 0.76186 v -0.454897 c 0,-0.359185 -0.0431,-0.504881 -0.20474,-0.692453 -0.19085,-0.22145 -0.24682,-0.237138 -0.8255,-0.231408 -0.57297,0.0057 -0.87376,0.09228 -1.52448,0.43894 -0.0314,0.01672 -0.16186,-0.148436 -0.28995,-0.367007 -0.22757,-0.388316 -0.22917,-0.400259 -0.0699,-0.522384 0.0896,-0.06874 0.35351,-0.211302 0.58641,-0.316803 1.22483,-0.554817 2.52254,-0.461145 3.24069,0.233923 0.46075,0.445936 0.52685,0.837988 0.52685,3.124885 v 2.016633 h -0.54872 c -0.52979,0 -0.55049,-0.008 -0.59975,-0.232833 -0.10574,-0.482592 -0.11247,-0.486201 -0.39941,-0.213962 -0.14985,0.142177 -0.39533,0.320404 -0.5455,0.396059 -0.39602,0.199508 -1.17385,0.243136 -1.64436,0.09223 z m 1.68534,-1.057038 c 0.36291,-0.221268 0.61235,-0.643674 0.61275,-1.037624 v -0.3175 l -0.52917,5.08e-4 c -0.67573,5.93e-4 -1.12462,0.126117 -1.28867,0.360324 -0.13446,0.191975 -0.1731,0.71395 -0.0647,0.874106 0.21397,0.316131 0.84946,0.376312 1.26948,0.120222 z m 15.17866,1.074264 c -0.16764,-0.05774 -0.37631,-0.224366 -0.48684,-0.388742 -0.18772,-0.279207 -0.19342,-0.345974 -0.19342,-2.264833 v -1.977144 h -0.38564 -0.38564 l 0.0258,-0.395549 c 0.0249,-0.380955 0.0387,-0.399828 0.37514,-0.511555 0.30766,-0.102167 0.35553,-0.153461 0.40124,-0.429951 0.0285,-0.17267 0.0528,-0.447295 0.054,-0.610279 0.004,-0.641451 0.0409,-0.677333 0.68699,-0.677333 h 0.58279 v 0.804333 0.804334 h 0.508 0.508 v 0.508 0.508 h -0.508 -0.508 v 1.686408 c 0,0.927525 0.0231,1.746675 0.0514,1.820333 0.038,0.09896 0.1693,0.133925 0.50301,0.133925 0.24839,0 0.46894,0.02858 0.49012,0.0635 0.0212,0.03492 0.052,0.23495 0.0685,0.4445 l 0.03,0.381 -0.46566,0.09767 c -0.60586,0.127074 -0.98983,0.128036 -1.35174,0.0034 z m 8.30129,-0.02388 c -0.25233,-0.06784 -0.58652,-0.202295 -0.74264,-0.298787 -1.40516,-0.868438 -1.50201,-3.72049 -0.16519,-4.864754 0.80913,-0.692592 2.28419,-0.803082 3.15792,-0.236546 0.64385,0.417479 0.94633,1.084469 1.02209,2.253721 l 0.048,0.740856 h -1.88192 -1.88192 l 0.0592,0.275167 c 0.1698,0.788477 0.55797,1.079682 1.43587,1.077174 0.43191,-0.0012 0.72925,-0.05784 1.09625,-0.208708 0.27697,-0.113858 0.51052,-0.198678 0.51898,-0.18849 0.008,0.01019 0.11333,0.213529 0.23302,0.451868 l 0.21763,0.433345 -0.40528,0.220578 c -0.81278,0.442372 -1.85553,0.574857 -2.71205,0.344576 z m 1.91966,-3.716621 c -0.0551,-0.488489 -0.25516,-0.78799 -0.63155,-0.945254 -0.66609,-0.278308 -1.3682,0.09208 -1.58993,0.838753 -0.0706,0.237791 -0.1284,0.444482 -0.1284,0.459313 0,0.01483 0.53835,0.02697 1.19635,0.02697 h 1.19634 z m 4.29645,3.736673 c -0.44667,-0.116163 -1.13815,-0.452096 -1.46468,-0.711566 l -0.19467,-0.154697 0.29903,-0.391634 0.29903,-0.391634 0.5947,0.305123 c 0.76966,0.394883 1.45022,0.467085 1.80009,0.190972 0.28387,-0.224024 0.31124,-0.59982 0.0607,-0.833244 -0.0947,-0.08821 -0.50425,-0.261204 -0.91016,-0.384431 -1.02279,-0.3105 -1.3754,-0.526329 -1.60585,-0.982906 -0.42382,-0.839673 -0.0876,-1.786014 0.7793,-2.193508 0.9354,-0.439688 2.32929,-0.244509 3.21186,0.449738 0.17322,0.13626 0.15706,0.179333 -0.26573,0.708322 l -0.15593,0.195096 -0.4916,-0.258596 c -0.39499,-0.207778 -0.59487,-0.258595 -1.01715,-0.258595 -0.55337,0 -0.76034,0.095 -0.84718,0.388863 -0.10036,0.339587 0.22406,0.59351 1.11605,0.873533 0.95497,0.299794 1.49654,0.600663 1.66112,0.922835 0.34714,0.679505 0.22261,1.458994 -0.31955,2.00035 -0.54123,0.54042 -1.63005,0.765063 -2.54936,0.525981 z M 44.983487,59.656737 c -0.105314,-0.134287 -0.102319,-0.137282 0.03197,-0.03197 0.08149,0.06391 0.148167,0.130585 0.148167,0.148166 0,0.06968 -0.06953,0.02483 -0.180134,-0.116199 z M 105.95429,55.867903 V 52.01557 h 0.67733 0.67733 v 1.403597 1.403598 l 0.33902,-0.29018 c 0.34771,-0.297629 1.03092,-0.570049 1.42754,-0.569209 0.43756,9.23e-4 0.90132,0.192142 1.20673,0.497566 0.17057,0.170562 0.35219,0.461654 0.40361,0.646871 0.0568,0.204538 0.0937,1.176117 0.094,2.47459 l 8.5e-4,2.137834 h -0.67733 -0.67734 v -1.90772 c 0,-1.475963 -0.0278,-1.974292 -0.1229,-2.201872 -0.25489,-0.610021 -1.14411,-0.617128 -1.80326,-0.01441 -0.18713,0.171108 -0.1905,0.209098 -0.1905,2.149095 v 1.974909 h -0.67734 -0.67733 v -3.852334 z m 16.002,0 V 52.01557 h 0.71966 0.71967 v 1.608667 1.608666 h 1.651 1.651 V 53.624237 52.01557 h 0.71967 0.71966 v 3.852333 3.852334 h -0.71966 -0.71967 V 58.11157 56.502903 h -1.651 -1.651 v 1.608667 1.608667 h -0.71967 -0.71966 z m 14.986,1.058334 v -2.794 h 0.59166 0.59167 l 0.0541,0.338666 c 0.0298,0.186267 0.0808,0.338667 0.11325,0.338667 0.0325,0 0.15145,-0.09896 0.26434,-0.219906 0.70192,-0.75201 1.90089,-0.803852 2.5417,-0.109902 0.29335,0.317684 0.3096,0.323974 0.44636,0.172854 0.078,-0.08626 0.34099,-0.265174 0.5843,-0.397597 0.35303,-0.192149 0.55355,-0.241679 0.99297,-0.245275 0.68719,-0.0056 1.05816,0.191366 1.35493,0.719488 0.20919,0.372254 0.21199,0.403727 0.23889,2.683838 l 0.0272,2.307167 h -0.72572 -0.72572 v -2.078182 -2.078182 l -0.21811,-0.218103 c -0.18427,-0.184274 -0.27118,-0.210983 -0.56033,-0.1722 -0.19947,0.02675 -0.47049,0.149686 -0.64973,0.294715 l -0.3075,0.248814 -0.0227,2.001568 -0.0227,2.00157 h -0.67166 -0.67166 l -0.0253,-2.124273 -0.0253,-2.124271 -0.21036,-0.170213 c -0.27536,-0.22281 -0.74181,-0.165178 -1.19283,0.147378 l -0.33248,0.230408 v 2.020485 2.020486 h -0.71967 -0.71966 z m 16.17133,0 v -2.794 h 0.59267 c 0.57039,0 0.59266,0.0077 0.59266,0.204741 0,0.460264 0.0757,0.487216 0.48672,0.17336 0.38977,-0.29761 1.05531,-0.54783 1.45482,-0.546962 0.64992,0.0014 1.23505,0.363936 1.55376,0.962678 0.17526,0.329233 0.18756,0.476161 0.21523,2.571683 l 0.0293,2.2225 h -0.72694 -0.72693 v -1.9685 c 0,-1.801839 -0.0143,-1.991408 -0.16529,-2.239073 -0.28751,-0.471507 -0.97211,-0.479845 -1.60749,-0.01958 l -0.34357,0.24888 v 1.989136 1.989136 h -0.67733 -0.67734 v -2.794 z m 6.858,0 v -2.794 h 0.67733 0.67734 v 2.794 2.794 h -0.67734 -0.67733 z m 7.62,0 v -2.794 h 0.67733 0.67734 v 2.794 2.794 h -0.67734 -0.67733 z m -86.952666,-0.2013 c 0,-0.01758 0.06668,-0.08426 0.148166,-0.148167 0.134287,-0.105314 0.137281,-0.10232 0.03197,0.03197 -0.110606,0.141033 -0.180133,0.185884 -0.180133,0.1162 z M 76.78662,54.470903 c 0.181885,-0.186266 0.34975,-0.338666 0.373033,-0.338666 0.02328,0 -0.106482,0.1524 -0.288366,0.338666 -0.181884,0.186267 -0.34975,0.338667 -0.373033,0.338667 -0.02328,0 0.106482,-0.1524 0.288366,-0.338667 z m 83.65067,-1.160476 c -0.54607,-0.134673 -0.729,-0.78522 -0.33235,-1.181871 0.19222,-0.192223 0.26912,-0.213069 0.65078,-0.176396 0.50566,0.04859 0.7399,0.267989 0.7399,0.693031 0,0.4504 -0.54371,0.792158 -1.05833,0.665236 z m 7.62,0.001 c -0.62377,-0.157554 -0.75696,-0.971555 -0.20562,-1.256665 0.34077,-0.176215 0.77884,-0.154493 1.04086,0.05161 0.29379,0.231087 0.31326,0.749918 0.0378,1.006556 -0.10192,0.09495 -0.22574,0.173152 -0.27517,0.173788 -0.0494,6.77e-4 -0.16606,0.01608 -0.2592,0.03432 -0.0931,0.01824 -0.24553,0.01392 -0.33866,-0.0096 z M 104.11445,46.93622 c -1.67594,-0.355241 -2.64408,-1.796653 -2.64478,-3.937651 -8.5e-4,-1.739969 0.72807,-3.067049 2.01446,-3.669023 0.42844,-0.200494 0.58138,-0.224893 1.41182,-0.225247 0.79218,-3.39e-4 0.99584,0.0288 1.36303,0.195023 0.78531,0.355491 1.38204,1.151301 1.52265,2.030677 l 0.057,0.356236 h -0.72043 -0.72044 l -0.0911,-0.361662 c -0.26538,-1.053916 -1.70593,-1.333746 -2.58262,-0.501679 -0.52688,0.500067 -0.7914,1.450939 -0.70687,2.541108 0.12408,1.600412 0.74434,2.296609 2.04813,2.29888 0.63164,0.0011 1.19726,-0.198324 1.75821,-0.619895 l 0.27379,-0.205759 0.36978,0.45701 c 0.30173,0.372916 0.35092,0.479734 0.26729,0.580495 -0.18749,0.225905 -0.96936,0.695759 -1.45985,0.87727 -0.55257,0.204488 -1.63066,0.29643 -2.16006,0.184217 z m 7.0336,-0.0042 c -1.23925,-0.245176 -1.97939,-1.270901 -1.98487,-2.75076 -0.004,-1.09676 0.23364,-1.770328 0.82677,-2.342721 0.41245,-0.398036 0.96746,-0.643219 1.59369,-0.704034 1.1155,-0.108331 1.9268,0.296616 2.36934,1.182616 0.21584,0.432125 0.25644,0.622083 0.28502,1.333491 l 0.0333,0.829582 h -1.83018 c -1.78337,0 -1.83018,0.0044 -1.83018,0.172053 0,0.272271 0.21179,0.69815 0.46179,0.928614 0.21109,0.194585 0.29225,0.211295 1.00575,0.207057 0.60777,-0.0036 0.86339,-0.04429 1.17838,-0.187525 l 0.40224,-0.182917 0.21159,0.417544 c 0.11637,0.22965 0.21159,0.439863 0.21159,0.467141 0,0.111221 -1.11141,0.55936 -1.5759,0.635426 -0.57185,0.09365 -0.86288,0.09246 -1.35834,-0.0056 z m 1.78867,-3.742993 c -0.0882,-0.530868 -0.26942,-0.823964 -0.593,-0.95917 -0.38951,-0.162746 -0.5985,-0.151702 -1.02362,0.05409 -0.37476,0.181425 -0.70915,0.690654 -0.70915,1.079975 0,0.181385 0.0229,0.184936 1.19278,0.184936 h 1.19277 z m 10.93664,3.747977 c -0.13306,-0.042 -0.3193,-0.14524 -0.41386,-0.22942 -0.35866,-0.319312 -0.40255,-0.598729 -0.40255,-2.563336 v -1.865386 h -0.38564 -0.38564 l 0.0258,-0.391293 c 0.025,-0.379119 0.0376,-0.395648 0.40606,-0.5313 0.20914,-0.07701 0.38786,-0.196199 0.39716,-0.264875 0.009,-0.06868 0.0415,-0.420141 0.0715,-0.781032 l 0.0546,-0.656167 h 0.58544 0.58545 v 0.804333 0.804334 h 0.508 0.508 v 0.508 0.508 h -0.508 -0.508 v 1.603155 c 0,0.881735 0.0385,1.704389 0.0855,1.828119 0.0804,0.211422 0.11352,0.223221 0.55045,0.196012 0.4267,-0.02657 0.46491,-0.01416 0.4648,0.150964 -6e-5,0.09895 0.0235,0.298173 0.0525,0.442708 0.0448,0.224165 0.0224,0.27424 -0.15234,0.34069 -0.31947,0.121463 -1.27105,0.181121 -1.53915,0.09649 z m 4.8751,-0.0067 c -0.50991,-0.10049 -1.16519,-0.477988 -1.42814,-0.822724 -0.41787,-0.547869 -0.56785,-1.078758 -0.56734,-2.00835 0,-0.667965 0.0394,-0.94637 0.1849,-1.319052 0.25058,-0.641814 0.68336,-1.121676 1.26482,-1.402397 0.40912,-0.197527 0.59665,-0.234575 1.20425,-0.237921 0.62307,-0.0034 0.78506,0.02815 1.20683,0.235257 0.81215,0.398809 1.143,1.026294 1.22427,2.321946 l 0.0491,0.783167 h -1.87671 -1.87672 l 0.0532,0.232833 c 0.10929,0.478595 0.33371,0.826826 0.62739,0.973536 0.44536,0.222483 1.27593,0.19415 1.905,-0.06499 0.2794,-0.115096 0.51688,-0.209442 0.52774,-0.209658 0.0109,-2.54e-4 0.11892,0.195347 0.24016,0.434584 0.24292,0.4794 0.25611,0.449244 -0.33238,0.759932 -0.37543,0.1982 -1.31334,0.414459 -1.74786,0.403012 -0.16298,-0.0043 -0.45931,-0.03992 -0.65849,-0.07918 z m 1.75916,-3.68194 c 0,-0.343983 -0.15451,-0.683849 -0.42021,-0.924305 -0.26506,-0.239867 -0.98032,-0.229273 -1.32997,0.0197 -0.29337,0.2089 -0.53582,0.65464 -0.53582,0.985106 v 0.220038 h 1.143 1.143 z m 15.748,3.641222 c -1.31502,-0.366905 -1.91514,-1.339267 -1.84863,-2.995277 0.0273,-0.679796 0.0723,-0.897357 0.26814,-1.297719 0.47528,-0.971422 1.33129,-1.459591 2.55818,-1.458877 0.59809,3.38e-4 0.75011,0.03425 1.24406,0.277414 0.63072,0.310503 1.01267,0.724567 1.24814,1.353083 0.47956,1.279995 0.17902,2.767218 -0.71891,3.55761 -0.66881,0.588703 -1.81773,0.824155 -2.75098,0.563766 z m 1.524,-1.202982 c 0.46733,-0.23346 0.67776,-0.740131 0.67547,-1.626476 -0.003,-1.229736 -0.40858,-1.780593 -1.31047,-1.780593 -0.90663,0 -1.27,0.508541 -1.27,1.777367 0,0.646903 0.034,0.8691 0.17361,1.135242 0.3116,0.593929 1.08827,0.815734 1.73139,0.49446 z m -31.75,-1.629702 v -2.794 h 0.59267 0.59266 v 0.282222 c 0,0.155222 0.0225,0.30473 0.05,0.332241 0.0275,0.02751 0.21962,-0.07944 0.42692,-0.237673 0.38155,-0.291245 1.06673,-0.546516 1.4646,-0.545651 0.67517,0.0015 1.27589,0.390482 1.56385,1.012731 0.16312,0.352476 0.17986,0.561716 0.2051,2.563963 l 0.0275,2.180167 h -0.726 -0.72599 v -1.951538 c 0,-2.06719 -0.0439,-2.332718 -0.41864,-2.533286 -0.38754,-0.207402 -1.06286,-0.04576 -1.50752,0.36082 -0.18713,0.171108 -0.1905,0.209098 -0.1905,2.149095 v 1.974909 h -0.67734 -0.67733 z m 17.526,0 v -2.794 h 0.59267 0.59266 l 0.001,0.275166 c 0.002,0.448354 0.10586,0.511014 0.32254,0.194799 0.27915,-0.407406 0.83077,-0.679794 1.22635,-0.605582 0.29365,0.05509 0.31242,0.07752 0.31155,0.372286 -8.4e-4,0.172515 -0.0252,0.460608 -0.0549,0.640206 -0.0515,0.311951 -0.066,0.324583 -0.32421,0.282684 -0.33223,-0.05392 -0.89806,0.184151 -1.09042,0.458784 -0.11781,0.16819 -0.13822,0.475899 -0.13822,2.083496 v 1.886161 h -0.71967 -0.71967 v -2.794 z m 7.366,0.508 v -2.286 h -0.33867 -0.33866 v -0.422333 -0.422332 l 0.33866,-0.05416 0.33867,-0.05416 0.002,-0.560679 c 0.004,-1.060347 0.45829,-1.622582 1.36554,-1.688207 0.26921,-0.01947 0.62412,-0.01014 0.7887,0.02073 0.29472,0.05529 0.29923,0.06247 0.29923,0.475633 v 0.419497 h -0.41297 c -0.52028,0 -0.62484,0.119698 -0.67182,0.769124 l -0.0362,0.500876 h 0.51818 0.51818 v 0.508 0.508 h -0.508 -0.508 v 2.286 2.286 h -0.67734 -0.67733 z m 10.75267,-0.508 v -2.794 h 0.54127 c 0.57257,0 0.64406,0.05088 0.64406,0.45848 0,0.31962 0.0963,0.312919 0.34009,-0.02368 0.29479,-0.406946 0.7651,-0.639299 1.16322,-0.574691 0.16262,0.02639 0.31267,0.06498 0.33345,0.08575 0.0208,0.02078 0.0109,0.310547 -0.022,0.643934 l -0.0597,0.606159 -0.2637,-0.01762 c -0.49767,-0.03326 -0.63938,0.0075 -0.93809,0.269765 l -0.29928,0.26277 v 1.938563 1.938563 h -0.71967 -0.71966 z m -108.542669,-0.7093 c 0,-0.01758 0.06667,-0.08426 0.148167,-0.148167 0.134286,-0.105314 0.137281,-0.10232 0.03197,0.03197 -0.110606,0.141033 -0.180133,0.185884 -0.180133,0.1162 z m 28.183199,-1.8942 c -0.105314,-0.134287 -0.102319,-0.137281 0.03197,-0.03197 0.141034,0.110606 0.185884,0.180133 0.1162,0.180133 -0.01758,0 -0.08426,-0.06668 -0.148167,-0.148166 z m -31.823866,-0.5715 c 0.299993,-0.302684 0.564492,-0.550334 0.587775,-0.550334 0.02328,0 -0.203115,0.24765 -0.503108,0.550334 -0.299993,0.302683 -0.564491,0.550333 -0.587775,0.550333 -0.02328,0 0.203116,-0.24765 0.503108,-0.550333 z m -3.048,-1.767634 c 0,-0.01758 0.06667,-0.08426 0.148167,-0.148166 0.134286,-0.105315 0.137281,-0.10232 0.03197,0.03197 -0.110606,0.141034 -0.180134,0.185884 -0.180134,0.1162 z m 38.053683,-0.581866 -0.334683,-0.359834 0.359833,0.334684 c 0.197908,0.184075 0.359833,0.346 0.359833,0.359833 0,0.06406 -0.07373,-4.2e-5 -0.384983,-0.334683 z m 36.229313,-4.45768 c -1.00612,-0.25727 -1.48988,-1.301303 -1.05095,-2.268096 0.32698,-0.720209 1.15462,-1.079801 2.48112,-1.077996 l 0.74083,0.001 v -0.367906 c 0,-0.47707 -0.18089,-0.816672 -0.50695,-0.951731 -0.37906,-0.157011 -1.16613,-0.06204 -1.69742,0.20481 -0.24405,0.122581 -0.45193,0.212273 -0.46196,0.199315 -0.01,-0.01296 -0.1197,-0.19947 -0.24373,-0.414474 l -0.22551,-0.390916 0.57296,-0.298937 c 1.64561,-0.858596 3.47899,-0.4941 3.82752,0.760955 0.0509,0.183285 0.089,1.214383 0.0893,2.415314 l 8.4e-4,2.0955 h -0.54289 -0.54289 l -0.0572,-0.338667 c -0.0315,-0.186267 -0.0853,-0.338667 -0.11968,-0.338667 -0.0344,0 -0.15483,0.09896 -0.26773,0.219907 -0.43448,0.465488 -1.34521,0.716801 -1.99526,0.55058 z m 1.4603,-1.101411 c 0.3778,-0.171571 0.7107,-0.703288 0.7107,-1.13514 0,-0.222814 -0.0106,-0.227269 -0.53975,-0.227269 -0.70601,0 -1.01849,0.06744 -1.23136,0.265754 -0.36188,0.337141 -0.31983,0.947478 0.0792,1.149365 0.29132,0.147403 0.57402,0.132217 0.98122,-0.05271 z m 4.94697,1.070915 c -0.16397,-0.05867 -0.37874,-0.231903 -0.48684,-0.392678 -0.18772,-0.279207 -0.19343,-0.345974 -0.19343,-2.264833 v -1.977146 h -0.381 -0.381 v -0.41233 -0.41233 l 0.37527,-0.105068 0.37527,-0.105069 0.0515,-0.562101 c 0.0283,-0.309156 0.0707,-0.685927 0.0942,-0.837269 l 0.0427,-0.275167 h 0.58883 0.58883 v 0.846667 0.846667 h 0.508 0.508 v 0.508 0.508 h -0.508 -0.508 l 10e-4,1.7145 c 8.5e-4,0.942975 0.034,1.766126 0.074,1.829225 0.0503,0.0793 0.20678,0.105442 0.50689,0.08467 0.42539,-0.02945 0.43502,-0.02491 0.47459,0.223942 0.10142,0.637724 0.0967,0.660691 -0.15024,0.727578 -0.48702,0.131927 -1.28775,0.159656 -1.58093,0.05475 z m 4.13333,-0.02153 c -1.33647,-0.427394 -1.43716,-2.313388 -0.15811,-2.961532 0.48621,-0.246378 1.55893,-0.421154 2.09318,-0.341037 l 0.36333,0.05448 V 30.30848 c 0,-0.370868 -0.0418,-0.514684 -0.20453,-0.703688 -0.18987,-0.220532 -0.24902,-0.23742 -0.8255,-0.235675 -0.49231,0.0015 -0.7217,0.0487 -1.10715,0.227852 l -0.48619,0.225972 -0.21887,-0.373486 c -0.12039,-0.205419 -0.19418,-0.413451 -0.16399,-0.462296 0.0911,-0.147412 0.85547,-0.502194 1.3716,-0.636627 1.26457,-0.32938 2.36874,0.02842 2.84379,0.921522 0.17475,0.328539 0.18749,0.478319 0.21537,2.533388 l 0.0296,2.184203 -0.57652,-0.0252 -0.57652,-0.0252 -0.071,-0.360449 -0.071,-0.36045 -0.27952,0.296378 c -0.50389,0.534275 -1.42443,0.748974 -2.17801,0.507982 z m 1.75533,-1.096437 c 0.31041,-0.203383 0.5424,-0.633608 0.54276,-1.006546 v -0.326187 l -0.71352,0.02985 c -0.5576,0.02333 -0.76475,0.06811 -0.94795,0.204923 -0.44072,0.329137 -0.41838,1.038844 0.0382,1.214662 0.29616,0.114035 0.8133,0.05816 1.08018,-0.116706 z m 8.29007,1.166971 c -0.74898,-0.168206 -1.38497,-0.64835 -1.66192,-1.254661 -0.23077,-0.505217 -0.21167,-1.406594 0.0413,-1.947334 0.17545,-0.375084 0.87331,-1.138528 1.04728,-1.145692 0.036,-0.0015 0.13451,-0.0551 0.219,-0.119144 0.14516,-0.110048 0.13721,-0.137935 -0.14469,-0.507241 -0.49955,-0.654447 -0.53394,-1.575202 -0.0802,-2.147089 0.7673,-0.967081 2.5836,-0.992022 3.30563,-0.04539 0.26329,0.345203 0.35414,1.025971 0.19945,1.494671 -0.10928,0.33116 -0.66308,0.930238 -1.04018,1.125242 l -0.24112,0.124692 0.39454,0.46181 c 0.21699,0.253996 0.43154,0.461811 0.47676,0.461811 0.0452,0 0.3138,-0.20955 0.59681,-0.465667 0.28303,-0.256116 0.53825,-0.465666 0.56719,-0.465666 0.0289,0 0.21858,0.169107 0.42143,0.375794 l 0.36881,0.375794 -0.48955,0.449706 c -0.26926,0.247338 -0.52254,0.462406 -0.56286,0.477928 -0.16997,0.06544 -0.0337,0.288772 0.65819,1.078586 l 0.73149,0.835035 -0.45632,0.405506 -0.45632,0.405506 -0.45622,-0.471012 -0.45622,-0.471012 -0.30578,0.240064 c -0.49352,0.387461 -0.71536,0.508221 -1.19554,0.650821 -0.4271,0.126835 -1.10251,0.161927 -1.48091,0.07695 z m 1.374,-1.172614 c 0.35063,-0.146505 0.86967,-0.52044 0.86967,-0.626548 0,-0.05341 -1.06566,-1.299376 -1.70018,-1.987846 -0.13655,-0.148165 -0.7607,0.36436 -0.94153,0.773148 -0.20765,0.469451 -0.17472,1.107605 0.0747,1.448005 0.35577,0.485449 1.0768,0.652504 1.69731,0.393241 z m 0.1162,-4.252124 c 0.4355,-0.40624 0.52901,-0.870162 0.24738,-1.227423 -0.15581,-0.197666 -0.24655,-0.232834 -0.60072,-0.232834 -0.52822,0 -0.75717,0.19955 -0.75286,0.656167 0.003,0.321517 0.0721,0.484261 0.378,0.891249 0.22561,0.300119 0.32588,0.288117 0.7282,-0.08716 z m 9.32704,5.354215 c -0.63345,-0.137624 -1.42652,-0.54456 -1.78789,-0.917405 l -0.26308,-0.271421 0.31587,-0.395762 c 0.17372,-0.21767 0.34477,-0.39759 0.3801,-0.399823 0.0353,-0.0022 0.22031,0.109001 0.41106,0.247188 0.38934,0.282027 1.0431,0.54609 1.56834,0.633471 0.81931,0.136302 1.47003,-0.318167 1.47003,-1.026683 0,-0.597514 -0.31797,-0.858143 -1.52414,-1.249309 -1.11557,-0.361779 -1.56268,-0.596726 -1.92853,-1.013396 -0.54539,-0.62118 -0.53954,-1.804264 0.0125,-2.528056 0.82694,-1.084195 2.9015,-1.228248 4.29428,-0.298185 0.2753,0.18384 0.49892,0.378726 0.49694,0.433081 -0.002,0.05436 -0.14577,0.2606 -0.31952,0.458321 l -0.3159,0.359492 -0.31764,-0.215841 c -0.92698,-0.6299 -2.35493,-0.652354 -2.68149,-0.04217 -0.048,0.08959 -0.0872,0.302556 -0.0872,0.473257 0,0.500177 0.36987,0.789607 1.49863,1.172709 1.67063,0.567014 2.27229,1.078846 2.36894,2.015264 0.13611,1.3188 -0.60727,2.299264 -1.95799,2.582462 -0.63394,0.132914 -0.95812,0.129501 -1.63334,-0.0172 z m 7.18558,0.03696 c -0.847,-0.166457 -1.46144,-0.64804 -1.82253,-1.42846 -0.14996,-0.324079 -0.17829,-0.546743 -0.17829,-1.401302 0,-0.862638 0.0276,-1.075756 0.18296,-1.411873 0.57367,-1.241282 1.95371,-1.856883 3.29449,-1.469588 0.38671,0.111705 0.5897,0.235678 0.88457,0.540227 0.49074,0.506848 0.67565,1.057576 0.67565,2.01229 v 0.709944 h -1.83141 -1.83141 l 0.0495,0.305288 c 0.17864,1.100833 1.29925,1.35853 2.93918,0.6759 0.0946,-0.03939 0.18144,0.05117 0.3175,0.331232 0.103,0.211994 0.18727,0.421882 0.18727,0.466419 0,0.138606 -0.83992,0.514519 -1.42824,0.63922 -0.62337,0.13213 -0.89382,0.137899 -1.43928,0.0307 z m 1.73102,-3.739497 c -0.12138,-0.759053 -0.61909,-1.166515 -1.27468,-1.043527 -0.53533,0.10043 -1.06016,0.747406 -1.06016,1.306918 0,0.06704 0.36094,0.09601 1.19616,0.09601 h 1.19615 z m 19.28426,3.747318 c -0.54245,-0.114652 -0.99136,-0.379878 -1.36888,-0.808772 -0.48861,-0.555088 -0.65013,-1.081276 -0.64876,-2.113478 9.3e-4,-0.731955 0.0308,-0.910281 0.22023,-1.316196 0.30067,-0.644326 0.68013,-1.050358 1.22054,-1.306013 0.87516,-0.414018 2.06624,-0.360384 2.73367,0.123096 0.36574,0.264945 0.73005,0.925458 0.80632,1.461947 l 0.0451,0.3175 h -0.56879 -0.56879 l -0.12439,-0.352164 c -0.17374,-0.491881 -0.49341,-0.707319 -1.04099,-0.701571 -0.87283,0.0092 -1.27448,0.552632 -1.28085,1.733074 -0.003,0.608392 0.0293,0.786239 0.20779,1.13301 0.295,0.573287 0.63679,0.750126 1.35993,0.703609 0.37173,-0.02391 0.69935,-0.107947 0.99001,-0.25393 l 0.43439,-0.21819 0.24766,0.43836 0.24766,0.43836 -0.29539,0.200725 c -0.65133,0.442591 -1.85374,0.681848 -2.6165,0.520633 z m 6.42441,-0.0018 c -0.49921,-0.104936 -1.18465,-0.493202 -1.42348,-0.806322 -0.45849,-0.601108 -0.58314,-1.034215 -0.58411,-2.029508 -8.5e-4,-0.82739 0.0237,-0.983736 0.21931,-1.400863 0.30406,-0.648277 0.68014,-1.048414 1.24606,-1.325789 0.41115,-0.201518 0.58561,-0.235839 1.20071,-0.236227 0.62166,-4.23e-4 0.78711,0.03266 1.21493,0.24273 0.80107,0.393341 1.11952,1.013112 1.21381,2.362319 l 0.0519,0.742836 -1.84168,-0.0074 c -1.01292,-0.0041 -1.85932,0.01021 -1.88089,0.03178 -0.0642,0.06421 0.12611,0.675744 0.27721,0.890753 0.3874,0.551245 1.49643,0.578108 2.66334,0.06451 0.0997,-0.04388 0.18236,0.04864 0.33539,0.375378 l 0.20309,0.433609 -0.20839,0.160106 c -0.51571,0.396212 -1.93205,0.660858 -2.68722,0.502114 z m 1.73715,-3.776836 c -0.0543,-0.482006 -0.28252,-0.800851 -0.68195,-0.952875 -0.72853,-0.27728 -1.44469,0.197906 -1.61017,1.068381 l -0.0523,0.275167 h 1.19423 1.19422 z m -76.77066,-0.159661 v -3.852333 l 1.41817,0.003 c 2.21383,0.0046 3.15213,0.249348 3.92709,1.024298 0.74556,0.745571 1.1139,2.111986 0.93756,3.478069 -0.12317,0.954146 -0.37197,1.58046 -0.83038,2.09032 -0.7604,0.845746 -1.68612,1.105341 -3.9496,1.107556 l -1.50284,0.0015 z m 3.81665,2.312107 c 0.74568,-0.438372 1.07605,-1.31115 0.98716,-2.607899 -0.11251,-1.641483 -0.87176,-2.286541 -2.69131,-2.286541 h -0.67316 v 2.591251 2.591251 l 0.99483,-0.03008 c 0.8981,-0.02716 1.03253,-0.05224 1.38248,-0.257978 z m 48.59202,-1.253773 v -2.794 h 0.54046 c 0.58341,0 0.63991,0.05197 0.64426,0.592666 0.002,0.195651 0.0274,0.181698 0.34118,-0.184382 0.3833,-0.447169 0.78852,-0.622897 1.24074,-0.53806 0.28193,0.05289 0.29712,0.07215 0.24848,0.315304 -0.0285,0.142434 -0.0518,0.422793 -0.0518,0.62302 v 0.364048 l -0.44279,-0.02239 c -0.41325,-0.0209 -0.4669,2.54e-4 -0.80433,0.316476 l -0.36154,0.338868 v 1.891225 1.891227 h -0.67734 -0.67733 z m 6.0508,2.688166 c -0.0684,-0.18151 -1.81747,-5.43554 -1.81747,-5.459487 0,-0.01247 0.31769,-0.02268 0.70597,-0.02268 h 0.70597 l 0.59499,2.053166 c 0.32726,1.129242 0.62428,2.053167 0.66007,2.053167 0.0358,0 0.33282,-0.923925 0.66007,-2.053167 l 0.595,-2.053166 h 0.66363 c 0.4744,0 0.66364,0.03017 0.66364,0.105813 0,0.0582 -0.40323,1.315497 -0.89606,2.794 l -0.89604,2.688187 h -0.79994 c -0.56225,0 -0.81179,-0.03145 -0.83983,-0.105833 z m 4.95587,-2.688166 v -2.794 h 0.67733 0.67733 v 2.794 2.794 h -0.67733 -0.67733 z m -84.801714,2.3495 -0.161289,-0.1905 0.1905,0.161289 c 0.104775,0.08871 0.1905,0.174433 0.1905,0.1905 0,0.06775 -0.06814,0.01773 -0.219711,-0.161289 z m -0.762,-0.762 -0.161289,-0.1905 0.1905,0.161289 c 0.104775,0.08871 0.1905,0.174433 0.1905,0.1905 0,0.06775 -0.06814,0.01773 -0.219711,-0.161289 z m 2.748911,-2.074334 c -0.105314,-0.134286 -0.10232,-0.137281 0.03197,-0.03197 0.08149,0.06391 0.148166,0.130585 0.148166,0.148166 0,0.06968 -0.06953,0.02483 -0.180133,-0.1162 z M 165.27471,27.37138 c -0.29963,-0.235685 -0.30661,-0.680029 -0.0153,-0.97137 0.27254,-0.272528 0.85219,-0.288445 1.17777,-0.03234 0.29798,0.234389 0.31144,0.728004 0.0271,0.995097 -0.26525,0.249195 -0.87812,0.253632 -1.18961,0.0086 z"
         id="path136" />
      <path
         style="fill:#000000;fill-opacity:1;stroke-width:0.0846667"
         d="M 50.158954,73.464818 C 46.870437,73.143156 43.85333,72.162514 41.141954,70.534049 39.229488,69.385413 37.12784,67.558661 35.76289,65.85857 30.162993,58.883708 29.677681,49.069666 34.565313,41.64101 c 1.120287,-1.702712 2.255652,-3.007802 3.697975,-4.250785 2.554876,-2.201773 5.751526,-3.807986 9.051577,-4.548128 2.292844,-0.514242 1.931276,-0.497793 11.691756,-0.531932 9.080452,-0.03176 9.85928,-0.01237 11.278614,0.280801 2.444146,0.504852 5.076411,1.976996 6.767649,3.784936 1.346875,1.439813 2.558485,3.525218 3.072185,5.2878 1.301087,4.46422 0.135303,9.211287 -3.080235,12.542692 -1.731302,1.793687 -3.734729,3.009822 -5.996749,3.64019 -1.737932,0.484318 -1.559263,0.476653 -11.110131,0.476653 -8.351174,0 -8.831535,-0.0081 -9.313333,-0.15773 -1.46551,-0.455028 -2.700581,-1.480742 -3.330732,-2.766136 -0.51097,-1.042288 -0.634447,-1.621586 -0.58556,-2.747191 0.0311,-0.715966 0.08997,-1.065692 0.253138,-1.503728 0.507406,-1.362159 1.414433,-2.408426 2.612258,-3.013271 1.352812,-0.683106 0.638954,-0.634595 10.110229,-0.687051 l 8.466666,-0.04689 0.338667,-0.182746 c 1.589738,-0.857829 1.480045,-3.186644 -0.182825,-3.881434 -0.464246,-0.193975 -17.034394,-0.189876 -18.058885,0.0045 -0.753611,0.142958 -1.936699,0.535428 -2.551031,0.846263 -1.23881,0.626804 -2.721229,1.882701 -3.593175,3.044118 -0.564544,0.751962 -1.274297,2.24292 -1.530049,3.214134 -0.40318,1.531066 -0.403672,3.388997 -0.0013,4.913866 0.266116,1.008505 0.973061,2.475165 1.581917,3.281921 1.221701,1.618798 2.98195,2.881882 4.906766,3.520899 1.304913,0.433216 1.283025,0.432125 9.818915,0.489644 9.858592,0.06643 10.756372,0.02302 13.242195,-0.640384 2.845303,-0.759335 5.474178,-2.264103 7.698783,-4.406781 2.282656,-2.198592 3.964142,-5.060436 4.747499,-8.080118 0.688389,-2.653595 0.691338,-5.703184 0.0081,-8.396511 C 82.952857,34.729099 77.60823,29.678046 71.060699,28.355445 69.434387,28.02693 68.368994,27.973033 63.472787,27.971578 l -4.5085,-0.0013 v -1.658636 -1.658638 l 5.228167,0.03874 c 5.410003,0.04009 5.839535,0.06477 7.6835,0.441455 3.777541,0.771676 7.401038,2.659156 10.139608,5.281722 3.497943,3.349774 5.630555,7.613216 6.252121,12.49902 0.147156,1.156724 0.128501,3.918017 -0.03434,5.082883 -0.899859,6.437001 -4.535582,11.897031 -10.053794,15.098518 -2.389967,1.386581 -5.261404,2.33854 -8.081594,2.679269 -0.953485,0.115198 -2.363037,0.129193 -10.541,0.104658 -8.726467,-0.02618 -9.488351,-0.03981 -10.075333,-0.180168 -4.115579,-0.984144 -7.2323,-3.334938 -9.044253,-6.821649 -0.592465,-1.140071 -0.941112,-2.091359 -1.2153,-3.315963 -0.171782,-0.76723 -0.19678,-1.104757 -0.19678,-2.656882 0,-1.552124 0.025,-1.889652 0.19678,-2.656882 1.03772,-4.634763 4.369287,-8.309684 8.82022,-9.729238 1.872104,-0.597077 1.113598,-0.557113 11.15394,-0.587675 10.110751,-0.03077 9.517031,-0.06123 10.774726,0.552727 0.851782,0.415809 1.86969,1.417718 2.314337,2.277961 1.127773,2.181868 0.755972,4.663764 -0.955944,6.381243 -0.68656,0.688791 -1.248437,1.049962 -2.120393,1.362974 l -0.550334,0.197557 -8.508999,0.04233 c -8.405229,0.04182 -8.513659,0.04449 -8.89095,0.21913 -1.146119,0.530514 -1.604598,1.828555 -1.032598,2.923488 0.269114,0.515144 0.792266,0.95735 1.291689,1.09183 0.230851,0.06216 2.9995,0.08158 8.865273,0.06216 8.490528,-0.0281 8.532881,-0.02909 9.249252,-0.215975 2.060103,-0.537432 3.677244,-1.472481 5.054912,-2.922808 1.744112,-1.836095 2.649755,-4.083834 2.649755,-6.57649 0,-4.822395 -3.560858,-8.892562 -8.415014,-9.618615 -0.708412,-0.105961 -2.214198,-0.120838 -9.779,-0.09662 -9.75101,0.03122 -9.309901,0.01058 -11.365541,0.531661 -3.84125,0.973706 -7.29395,3.261077 -9.769039,6.471868 -2.366429,3.069829 -3.644751,7.078991 -3.483239,10.924371 0.106077,2.525518 0.618362,4.566832 1.711175,6.818547 2.217459,4.569024 6.492527,8.073181 11.357122,9.309127 1.959633,0.497883 1.850812,0.490396 7.666703,0.527465 l 5.3975,0.0344 v 1.645895 1.645896 l -5.101167,-0.01355 c -2.805642,-0.0075 -5.234517,-0.02659 -5.3975,-0.04254 z"
         id="path134" />
    </g>
  </g>
</svg>
