<?xml version="1.0" encoding="UTF-8" standalone="no"?>
<svg
   version="1.1"
   style="display:block"
   viewBox="0 0 802.20636 637.27399"
   width="401.10318"
   height="318.63699"
   preserveAspectRatio="none"
   id="svg30"
   sodipodi:docname="mosaic_logo.svg"
   inkscape:version="1.4.3 (0d15f75, 2025-12-25)"
   xmlns:inkscape="http://www.inkscape.org/namespaces/inkscape"
   xmlns:sodipodi="http://sodipodi.sourceforge.net/DTD/sodipodi-0.dtd"
   xmlns="http://www.w3.org/2000/svg"
   xmlns:svg="http://www.w3.org/2000/svg">
  <defs
     id="defs30" />
  <sodipodi:namedview
     id="namedview30"
     pagecolor="#ffffff"
     bordercolor="#111111"
     borderopacity="1"
     inkscape:showpageshadow="0"
     inkscape:pageopacity="0"
     inkscape:pagecheckerboard="1"
     inkscape:deskcolor="#d1d1d1"
     inkscape:zoom="0.85351562"
     inkscape:cx="42.764302"
     inkscape:cy="257.17162"
     inkscape:window-width="1296"
     inkscape:window-height="1524"
     inkscape:window-x="2536"
     inkscape:window-y="39"
     inkscape:window-maximized="0"
     inkscape:current-layer="svg30" />
  <path
     fill="#9E484D"
     d="m 533.973,0 c 7.15,1.897 103.56,101.77 118.25,116.698 -13.38,14.924 -30.07,30.726 -44.39,45.121 l -71.83,72.144 c -5.32,-1.551 -106.17,-105.016 -117.63,-117.052 7.96,-9.568 31.01,-31.051 40.68,-40.628 25.38,-25.027 50.36,-50.458 74.92,-76.283 z"
     id="path2" />
  <path
     fill="#9E484D"
     d="m 265.899,0.144 c 6.846,2.645 103.606,102.528 117.434,116.263 -6.297,8.678 -28.793,30.055 -37.62,38.886 -26.229,25.951 -52.204,52.158 -77.922,78.616 -4.272,-1.027 -45.904,-44.554 -52.761,-51.518 -21.126,-21.454 -44.316,-43.125 -64.798,-65.058 9.053,-11.726 29.818,-31.387 41.098,-42.714 24.716,-24.965 49.573,-49.79 74.569,-74.475 z"
     id="path3" />
  <path
     fill="#9E484D"
     d="m 400.413,403.099 c 12.47,9.978 38.7,37.664 50.56,49.857 21.19,21.786 46.56,45.308 66.77,67.468 -15.93,17.57 -35.53,36.52 -52.39,53.37 -21.11,21.27 -42.33,42.43 -63.66,63.48 -6.55,-4.8 -28.662,-27.87 -35.608,-34.78 l -82.474,-82.18 z"
     id="path4" />
  <path
     fill="#9E484D"
     d="m 400.553,135.037 c 5.87,3.409 34.51,33.33 40.46,39.342 l 76.92,77.646 c -38.83,38.665 -77.7,78.64 -116.79,116.846 -15.83,-14.449 -31.45,-31.04 -46.677,-46.315 L 283.83,251.644 c 39.202,-38.552 77.623,-78.341 116.723,-116.607 z"
     id="path5" />
  <path
     fill="#336790"
     d="m 534.553,269.256 c 6.48,4.311 27.68,26.795 34.52,33.453 27.94,27.198 55.2,56.029 83.4,82.938 -9.81,10.991 -26.76,26.918 -37.51,37.752 l -79,79.615 c -3.16,-1.34 -108.48,-107.569 -117.84,-116.793 36.95,-38.282 78.55,-79.46 116.43,-116.965 z"
     id="path6" />
  <path
     fill="#336790"
     d="m 669.513,134.67 c 5.87,4.334 34.86,34.324 41.52,41.34 23.41,24.648 52.05,50.548 74.51,75.422 -27.58,30.543 -59.31,59.004 -87.81,88.811 -8.79,9.197 -18.7,19.001 -28.18,27.39 -12.68,-9.91 -33.01,-31.195 -44.89,-43.042 l -72.55,-72.628 c 38.49,-38.806 78.04,-79.619 117.4,-117.293 z"
     id="path7" />
  <path
     fill="#336790"
     d="m 132.409,134.74 c 6.015,2.802 102.702,102.444 117.239,117.052 C 211.199,290.839 172.39,329.529 133.224,367.856 116.124,353.124 99.001,334.895 83.077,318.731 60.811,296.144 38.375,273.725 15.771,251.475 54.447,212.361 93.327,173.448 132.409,134.74 Z"
     id="path8" />
  <path
     fill="#336790"
     d="m 266.072,270.134 c 4.844,1.222 105.262,103.24 117.701,116.034 -10.805,12.239 -29.086,29.482 -40.935,41.349 -25.07,25.04 -50.006,50.214 -74.805,75.527 -4.482,-1.88 -105.886,-104.956 -117.481,-117.01 11.608,-12.976 28.056,-28.534 40.567,-41.045 z"
     id="path9" />
  <path
     fill="#9E484D"
     d="m 638.063,471.635 163.94,-0.029 0.13,164.828 c -54.23,-0.66 -109.99,0.03 -164.31,0.06 1.13,-54.71 -0.49,-110 0.24,-164.859 z"
     id="path10" />
  <path
     fill="#9E484D"
     d="m 0.151,471.871 c 53.576,-1.609 110.493,1.52 163.903,-0.06 l -0.011,164.503 c -15.243,-0.66 -34.082,-0.22 -49.556,-0.25 L 0,636.294 c 1.517,-52.38 0.317,-111.53 0.151,-164.423 z"
     id="path11" />
  <path
     fill="#9E484D"
     d="m 800.913,270.463 c 1.79,1.858 1.23,161.881 1.14,176.985 -17.73,-0.577 -39.36,0.044 -57.44,0.076 l -105.28,-0.053 c -2.01,-2.219 -1.19,-9.699 -1.08,-12.954 4.46,-5.687 14.36,-15.27 19.91,-20.928 l 41.8,-41.97 c 32.6,-32.718 67.6,-69.78 100.95,-101.156 z"
     id="path14" />
  <path
     fill="#9E484D"
     d="m 0.156,270.994 c 7.04,3.736 49.859,48.109 57.662,55.971 l 106.494,107.211 0.255,12.391 c -2.514,1.556 -151.389,0.988 -164.505,1.03 C 0.42,390.806 1.581,327.36 0.156,270.994 Z"
     id="path15" />
</svg>
