<svg width="2227" height="836" viewBox="0 0 2227 836" fill="none" xmlns="http://www.w3.org/2000/svg">
<path d="M131.858 570.54C119.182 561.462 115.663 555.264 105.288 544.501L73.9354 579.042C84.7364 592.318 91.8397 598.724 105.288 609.332L131.858 570.54Z" fill="#336790"/>
<path d="M638.814 20.5396C624.531 15.114 615.939 12.3928 598.959 8.31738L590.457 52.9551C603.221 55.5383 610.605 57.9821 623.935 63.0517L638.814 20.5396Z" fill="#336790"/>
<path d="M584.078 51.3607C570.752 48.7019 563.369 47.5655 550.6 47.1095L551.662 1.94043C567.74 2.83458 576.824 4.23411 593.112 7.25444L584.078 51.3607Z" fill="#336790"/>
<path d="M544.223 47.1097C528.075 46.2992 518.277 46.0743 499.585 46.0469V1.40918C519.285 1.41926 530.217 1.45273 545.817 2.47198L544.223 47.1097Z" fill="#336790"/>
<path d="M686.109 476.482C676.224 483.601 670.354 487.58 657.945 494.55L677.075 536.53C693.761 528.47 701.271 522.51 714.273 513.68L686.109 476.482Z" fill="#336790"/>
<path d="M741.907 420.154C734.433 430.161 729.14 435.631 719.057 447.256L756.255 477.014C766.326 465.952 771.808 459.225 781.231 445.662L741.907 420.154Z" fill="#336790"/>
<path d="M342.296 677.35V632.712H380.557V677.35H342.296Z" fill="#336790"/>
<path d="M334.849 632.182H295.525V676.82H334.849V632.182Z" fill="#336790"/>
<path d="M289.683 631.651C274.923 631.855 264.685 630.691 250.89 627.399C249.438 644.832 248.623 655.136 247.171 672.569C261.769 675.687 272.611 677.629 289.683 676.82V631.651Z" fill="#336790"/>
<path d="M245.044 626.337C245.044 626.337 222.36 620.269 209.972 616.24L201.469 661.409C220.903 668.539 230.342 670.719 241.324 670.975L245.044 626.337Z" fill="#336790"/>
<path d="M204.661 614.115C192.12 609.277 185.058 606.507 171.182 598.704L154.178 641.216C169.98 649.808 178.944 653.442 195.095 658.752L204.661 614.115Z" fill="#336790"/>
<path d="M137.171 574.791C147.889 583.668 154.421 587.871 166.399 594.984L149.394 638.559C133.991 630.009 125.503 624.311 110.601 613.051L137.171 574.791Z" fill="#336790"/>
<path d="M69.684 574.261L101.037 539.188L89.3458 524.309L78.7178 506.241L42.0511 537.062L53.2106 556.193L69.684 574.261Z" fill="#336790"/>
<path d="M60.6482 466.917C65.2606 481.159 68.4372 488.553 74.996 500.926L39.3921 531.741C28.88 515.381 24.2 505.882 18.6675 488.166L60.6482 466.917Z" fill="#336790"/>
<path d="M58.5257 462.134C53.2597 445.095 51.0122 435.774 48.9605 419.622L3.26001 433.438C5.4619 451.854 7.97861 462.686 15.4822 483.39L58.5257 462.134Z" fill="#336790"/>
<path d="M48.9557 376.578C47.7312 391.176 48.1135 399.117 48.9557 413.245L2.72382 427.061C-0.0215433 409.232 -0.66136 398.777 1.12962 378.704L48.9557 376.578Z" fill="#336790"/>
<path d="M56.397 330.347C53.74 338.318 48.9574 355.323 48.9574 369.67L1.66272 372.327C2.24384 354.695 2.45474 345.409 8.03953 328.221L56.397 330.347Z" fill="#336790"/>
<path d="M72.3408 289.429C65.6763 302.299 62.6591 309.906 57.993 323.97L9.6355 321.845C14.3782 303.47 17.9551 293.302 27.1717 275.613L72.3408 289.429Z" fill="#336790"/>
<path d="M95.1903 252.761C87.4307 263.648 83.2971 270.72 76.0599 284.114L29.828 269.766C38.0716 252.205 43.3923 242.995 54.8039 228.316L95.1903 252.761Z" fill="#336790"/>
<path d="M126.544 219.283C114.88 229.687 109.058 236.064 99.4424 247.979L59.0559 223.003C69.7364 208.668 76.4576 200.972 90.94 188.462L126.544 219.283Z" fill="#336790"/>
<path d="M164.269 191.119C151.388 199.15 143.774 204.543 131.322 215.032L95.7184 183.679C108.774 171.853 117.298 165.209 132.916 155.515L164.269 191.119Z" fill="#336790"/>
<path d="M204.66 170.394C191.356 175.622 183.6 179.624 169.588 187.399L138.235 152.327C154.939 142.27 164.761 137.254 183.936 129.477L204.66 170.394Z" fill="#336790"/>
<path d="M246.637 157.641C231.55 160.2 223.873 162.887 210.502 168.269L190.309 127.351C206.735 120.196 216.108 117.449 232.821 115.128L246.637 157.641Z" fill="#336790"/>
<path d="M291.81 152.327C276.203 152.234 267.729 153.26 253.018 156.578L237.607 113.003C256.874 108.57 267.793 107.545 287.559 107.689L291.81 152.327Z" fill="#336790"/>
<path d="M336.978 152.327H297.123L293.935 107.69L335.915 107.158L336.978 152.327Z" fill="#706DA6"/>
<path d="M342.293 151.796L341.761 107.158H384.273V151.796H342.293Z" fill="#8B516A"/>
<path d="M431.037 151.796H390.119V106.627H431.037V151.796Z" fill="#E39E22"/>
<path d="M437.942 152.327V107.158H478.86V152.327H437.942Z" fill="#005E54"/>
<path d="M485.237 152.327V107.158H526.155V152.327H485.237Z" fill="#D9D9D9"/>
<path d="M485.237 152.327V107.158H526.155V152.327H485.237Z" fill="#706DA6"/>
<path d="M412.968 257.545V212.375H453.886V257.545H412.968Z" fill="#31837B"/>
<path d="M378.958 361.698V316.529H419.876V361.698H378.958Z" fill="#3B4856"/>
<path d="M352.39 468.511V421.748H392.777V468.511H352.39Z" fill="#3B4856"/>
<path d="M445.911 468.511V421.748H486.298V468.511H445.911Z" fill="#8B516A"/>
<path d="M399.154 468.511V421.748H439.541V468.511H399.154Z" fill="#51AB97"/>
<path d="M343.886 573.728V526.965H384.273V573.728H343.886Z" fill="#31837B"/>
<path d="M296.06 572.665V525.901H336.446V572.665H296.06Z" fill="#51AB97"/>
<path d="M437.414 573.728V526.965H477.801V573.728H437.414Z" fill="#E39E22"/>
<path d="M485.237 573.728V526.965H525.624V573.728H485.237Z" fill="#8B516A"/>
<path d="M390.65 573.728V526.965H431.037V573.728H390.65Z" fill="#9E484D"/>
<path d="M470.358 361.698V316.529H511.276V361.698H470.358Z" fill="#E39E22"/>
<path d="M424.656 361.698V316.529H465.574V361.698H424.656Z" fill="#51AB97"/>
<path d="M319.44 257.545V212.375H360.358V257.545H319.44Z" fill="#706DA6"/>
<path d="M366.207 257.545V212.375H407.125V257.545H366.207Z" fill="#74A2CF"/>
<path d="M404.464 46.047V0.87793H445.382V46.047H404.464Z" fill="#336790"/>
<path d="M452.294 46.047V0.87793H493.211V46.047H452.294Z" fill="#336790"/>
<path d="M333.257 361.698V316.529H374.175V361.698H333.257Z" fill="#74A2CF"/>
<path d="M305.626 466.386V421.748C320.93 422.628 329.71 422.708 347.076 421.748V466.386C331.279 467.336 322.129 467.151 305.626 466.386Z" fill="#31837B"/>
<path d="M458.669 257.545V212.375H499.587V257.545H458.669Z" fill="#E39E22"/>
<path d="M570.265 157.109C555.835 153.052 547.666 151.645 533.067 151.795V107.158C551.455 106.131 561.781 107.55 579.83 113.003L570.265 157.109Z" fill="#3B4856"/>
<path d="M577.171 158.704L585.142 114.598C594.176 116.724 612.76 122.278 627.654 132.134L612.244 176.241C598.427 166.675 592.025 163.938 577.171 158.704Z" fill="#E39E22"/>
<path d="M642.532 203.873C632.615 192.587 626.898 186.865 615.962 178.897L632.967 136.917C649.435 145.293 656.632 151.942 670.697 166.144L642.532 203.873Z" fill="#9E484D"/>
<path d="M663.789 240.539C658.878 228.462 655.199 221.529 646.253 208.655L674.948 170.926C688.872 187.26 695.056 196.539 702.05 213.438L663.789 240.539Z" fill="#31837B"/>
<path d="M718.526 268.173C715.993 248.861 713.032 237.928 704.71 218.221L665.917 246.385C670.414 259.879 671.658 267.441 672.294 280.927L718.526 268.173Z" fill="#74A2CF"/>
<path d="M666.445 325.032C670.931 310.88 671.954 302.598 671.759 287.303L719.054 274.549C719.431 297.102 718.716 308.526 715.334 327.158L666.445 325.032Z" fill="#E39E22"/>
<path d="M712.678 334.067L664.852 331.41C659.578 344.621 655.495 351.819 646.784 364.357L690.89 380.83C700.977 364.858 705.907 354.817 712.678 334.067Z" fill="#3B4856"/>
<path d="M543.164 313.341C538.9 315.781 531.826 316.233 516.594 316.53L517.125 361.167C535.33 361.751 544.948 361.194 559.637 356.385L543.164 313.341Z" fill="#8B516A"/>
<path d="M651.569 423.341L619.153 392.52C629.328 383.446 634.331 378.46 642.535 369.67L687.173 386.143C674.55 404.037 666.641 411.841 651.569 423.341Z" fill="#9E484D"/>
<path d="M646.788 428.124L613.31 396.24C600.547 404.404 593.011 408.548 578.237 414.307L603.213 452.037C620.473 444.795 629.981 439.206 646.788 428.124Z" fill="#336790"/>
<path d="M597.366 454.163L571.327 415.902C558.91 420.111 551.298 421.567 536.255 421.747L552.197 465.322C569.977 462.823 579.867 460.369 597.366 454.163Z" fill="#74A2CF"/>
<path d="M529.877 421.216C515.314 421.716 507.271 421.717 492.679 421.216V467.448C516.785 468.543 529.072 468.619 545.287 466.385L529.877 421.216Z" fill="#706DA6"/>
<path d="M300.311 422.279C291.108 420.057 286.409 417.826 279.586 411.651L247.702 443.535C263.131 459.369 279.465 466.904 300.311 466.385V422.279Z" fill="#9E484D"/>
<path d="M272.674 385.612C271.94 395.168 272.809 399.669 276.394 406.336L243.447 438.752C228.238 420.953 221.721 401.433 228.036 376.046L272.674 385.612Z" fill="#E39E22"/>
<path d="M287.557 366.482C280.585 371.371 278.858 374.382 275.867 379.767L229.635 370.202C237.662 348.574 245.943 339.011 267.364 326.096L287.557 366.482Z" fill="#8B516A"/>
<path d="M327.945 362.229C309.561 361.847 299.015 361.581 292.873 363.823L272.679 323.437C284.795 317.047 299.445 316.794 328.477 317.591L327.945 362.229Z" fill="#706DA6"/>
<path d="M536.254 258.077C526.476 257.504 519.552 257.281 505.433 257.014L505.965 212.377C525.024 212.068 533.055 212.193 543.163 212.908L536.254 258.077Z" fill="#9E484D"/>
<path d="M551.664 266.579C548.507 263.438 546.651 261.788 542.63 259.671L549.539 214.501C575.315 223.435 583.911 231.746 595.77 248.511L551.664 266.579Z" fill="#3B4856"/>
<path d="M560.164 292.086C560.603 281.512 559.563 276.774 555.381 270.83L598.956 253.825C608.508 275.161 609.345 287.027 603.739 308.028L560.164 292.086Z" fill="#31837B"/>
<path d="M564.948 353.729L549.006 309.622C553.027 306.431 555.072 304.06 558.04 297.932L602.146 313.874C591.976 334.17 583.436 342.425 564.948 353.729Z" fill="#706DA6"/>
<path d="M313.594 258.076C301.97 257.647 294.224 257.598 276.927 258.076L273.207 213.97C276.079 213.216 287.189 212.738 313.594 211.844V258.076Z" fill="#9E484D"/>
<path d="M270.55 259.67C253.72 264.676 246.618 267.472 237.072 272.424L223.787 228.318C240.22 221.181 249.647 218.235 266.83 215.564L270.55 259.67Z" fill="#3B4856"/>
<path d="M231.232 275.081C219.883 281.273 214.417 285.875 205.194 294.743L179.686 255.95C192.239 245.724 200.582 240.212 217.947 230.975L231.232 275.081Z" fill="#E39E22"/>
<path d="M179.152 325.032C185.584 314.979 189.803 309.297 199.877 298.994L174.369 260.733C160.56 272.748 154.108 280.441 144.08 295.274L179.152 325.032Z" fill="#31837B"/>
<path d="M165.334 357.448C168.214 346.061 170.554 340.276 175.962 331.409L139.827 300.588C130.223 316.815 125.734 326.5 120.165 344.694L165.334 357.448Z" fill="#706DA6"/>
<path d="M160.553 399.429C160.185 385.522 160.41 377.731 163.21 363.825L118.572 350.008C114.206 369.946 113.256 381.357 113.258 402.086L160.553 399.429Z" fill="#8B516A"/>
<path d="M169.055 439.284C164.084 425.67 162.441 418.412 160.552 405.806L113.789 407.931C116.345 426.336 118.911 436.174 124.949 453.1L169.055 439.284Z" fill="#74A2CF"/>
<path d="M191.374 475.951C183.282 466.316 178.952 459.714 171.713 445.13L127.075 458.946C134.771 476.901 140.755 486.059 153.113 501.458L191.374 475.951Z" fill="#3B4856"/>
<path d="M220.599 501.989C209.533 494.595 204.363 489.911 196.154 480.733L156.831 506.241C169.125 520.335 176.581 526.581 190.309 536.531L220.599 501.989Z" fill="#9E484D"/>
<path d="M258.334 520.588C245.513 516.028 238.356 513.037 225.918 505.709L195.629 539.719C210.738 549.532 219.439 554.202 235.484 559.912L258.334 520.588Z" fill="#E39E22"/>
<path d="M531.47 572.665L530.938 527.013C545.853 527.053 554.061 526.345 568.668 524.839L573.451 569.948C563.294 572.027 553.701 572.549 531.47 572.665Z" fill="#706DA6"/>
<path d="M579.829 567.882L574.515 523.244C589.544 521.024 597.657 518.964 611.713 514.21L624.466 557.785C607.33 563.437 597.434 565.757 579.829 567.882Z" fill="#336790"/>
<path d="M630.845 556.192L617.56 512.085C630.532 507.607 638.059 504.513 652.101 497.206L671.231 539.187C655.699 547.203 646.935 551.244 630.845 556.192Z" fill="#336790"/>
<path d="M714.808 452.038C705.312 461.101 700.146 465.481 691.426 472.231L719.591 510.492C732.138 500.553 739.23 494.194 751.475 481.796L714.808 452.038Z" fill="#336790"/>
<path d="M765.818 379.236C758.855 394.179 754.113 401.953 745.625 414.308L785.48 440.347C794.999 426.361 799.935 417.964 807.267 401.555L765.818 379.236Z" fill="#336790"/>
<path d="M779.102 340.443C775.677 353.825 773.033 361.094 767.942 373.922L809.923 395.709C816.319 379.71 819.845 370.609 824.802 351.071L779.102 340.443Z" fill="#336790"/>
<path d="M780.7 334.067C782.832 321.609 783.741 314.35 784.42 300.589L831.183 298.995C830.737 318.749 829.443 328.632 825.869 344.164L780.7 334.067Z" fill="#336790"/>
<path d="M782.825 255.419C784.871 270.577 785.067 279.065 784.419 294.211L831.183 292.617C831.662 276.9 831.54 267.891 829.588 251.168L782.825 255.419Z" fill="#336790"/>
<path d="M773.259 212.907C778.073 227.737 780.175 235.801 782.292 249.573L829.587 245.322C827.166 229.434 825.235 220.494 820.022 204.404L773.259 212.907Z" fill="#336790"/>
<path d="M770.598 207.061C766.06 195.082 763.19 188.15 755.188 173.583L798.231 154.453C807.722 171.612 811.666 181.135 817.362 198.028L770.598 207.061Z" fill="#336790"/>
<path d="M752.001 168.269C745.291 157.556 741.089 151.349 731.807 139.573L768.354 111.172C780.611 125.003 786.272 133.339 794.924 148.901L752.001 168.269Z" fill="#336790"/>
<path d="M700.986 108.752C712.957 118.289 718.644 124.256 728.088 135.322L765.286 106.627C753.839 93.1451 746.776 86.0958 732.87 74.7427L700.986 108.752Z" fill="#336790"/>
<path d="M696.738 105.032C685.118 96.0055 678.577 91.2227 666.98 84.3074L690.362 43.9209C705.955 53.5018 714.362 59.333 728.623 70.491L696.738 105.032Z" fill="#336790"/>
<path d="M629.783 65.7085C642.012 70.1965 649.009 73.8596 661.667 81.1192L684.517 41.2641C669.217 32.6028 660.556 28.3365 644.662 22.665L629.783 65.7085Z" fill="#336790"/>
<path d="M289.684 526.964C279.991 526.238 274.84 525.111 264.708 522.182L241.327 561.505C260.253 568.437 270.753 570.648 289.684 571.071V526.964Z" fill="#706DA6"/>
<path fill-rule="evenodd" clip-rule="evenodd" d="M894.148 835.798L894.148 40.6353L896.259 40.6353L896.259 835.798L894.148 835.798Z" fill="#336790"/>
<path d="M977.963 274.407C983.479 274.168 988.036 273.448 991.634 272.249C995.472 271.051 998.35 268.293 1000.27 263.978C1002.43 259.662 1003.51 252.709 1003.51 243.118V105.372C1003.51 98.8985 1003.63 92.6646 1003.87 86.6704C1004.35 80.6762 1004.71 76.1207 1004.95 73.0037C1001.11 73.2435 996.311 73.4832 990.555 73.723C984.798 73.723 980.601 73.8429 977.963 74.0827V46.3896L1082.66 46.03C1106.41 46.03 1126.91 49.6265 1144.18 56.8195C1161.69 63.7727 1175.96 73.2435 1187 85.2318C1198.27 97.2201 1206.66 110.647 1212.18 125.513C1217.7 140.138 1220.46 154.884 1220.46 169.749C1220.46 184.375 1217.82 199.241 1212.54 214.346C1207.5 229.451 1199.47 243.358 1188.44 256.065C1177.4 268.533 1163.01 278.723 1145.26 286.635C1127.51 294.308 1106.05 298.144 1080.86 298.144H977.963V274.407ZM1055.68 239.162C1055.68 245.635 1055.56 251.869 1055.32 257.864C1055.08 263.858 1054.72 268.413 1054.24 271.53C1056.64 271.29 1059.87 271.29 1063.95 271.53C1068.27 271.53 1072.71 271.65 1077.26 271.89C1081.82 271.89 1085.54 271.89 1088.42 271.89C1101.61 271.89 1112.88 269.252 1122.24 263.978C1131.83 258.703 1139.63 251.63 1145.62 242.758C1151.86 233.647 1156.42 223.457 1159.29 212.188C1162.17 200.919 1163.61 189.29 1163.61 177.302C1163.61 140.618 1156.18 113.764 1141.3 96.7406C1126.67 79.7172 1106.88 70.8458 1081.94 70.1265C1076.18 69.8867 1071.27 70.4862 1067.19 71.9248C1063.35 73.1236 1060.47 75.8809 1058.55 80.1967C1056.64 84.5125 1055.68 91.3458 1055.68 100.697V239.162Z" fill="#336790"/>
<path d="M1363.63 298.144C1363.15 294.788 1362.79 292.03 1362.55 289.872C1362.55 287.475 1362.43 284.717 1362.19 281.6C1354.03 289.752 1345.4 295.507 1336.28 298.864C1327.17 302.22 1317.93 303.899 1308.58 303.899C1293.23 303.899 1281.23 299.343 1272.6 290.232C1263.97 281.121 1259.65 269.732 1259.65 256.065C1259.65 244.557 1262.53 234.726 1268.28 226.574C1274.28 218.422 1282.07 211.828 1291.67 206.793C1301.5 201.518 1312.3 197.562 1324.05 194.925C1336.04 192.048 1348.03 190.369 1360.03 189.89V171.188C1360.03 161.837 1358.11 153.925 1354.27 147.451C1350.67 140.977 1343.96 137.98 1334.12 138.46C1324.05 138.939 1315.89 142.296 1309.66 148.53C1311.58 150.688 1312.78 153.086 1313.26 155.723C1313.74 158.121 1313.98 160.279 1313.98 162.197C1313.98 166.992 1312.06 172.027 1308.22 177.302C1304.38 182.337 1298.26 184.735 1289.87 184.495C1282.67 184.255 1277.16 181.738 1273.32 176.942C1269.48 172.147 1267.56 166.513 1267.56 160.039C1267.56 150.448 1270.92 142.176 1277.64 135.223C1284.59 128.03 1293.83 122.515 1305.34 118.679C1316.85 114.603 1329.57 112.565 1343.48 112.565C1364.58 112.565 1380.89 118.08 1392.41 129.109C1404.16 139.899 1410.04 157.282 1410.04 181.258C1410.04 189.41 1410.04 196.363 1410.04 202.118C1410.04 207.872 1409.92 213.627 1409.68 219.381C1409.68 225.135 1409.68 232.089 1409.68 240.241C1409.68 243.597 1409.56 248.393 1409.32 254.627C1409.08 260.621 1408.72 266.375 1408.24 271.89C1412.32 271.41 1416.63 271.171 1421.19 271.171C1425.75 270.931 1429.23 270.811 1431.62 270.811V298.144H1363.63ZM1359.67 215.425C1346.24 216.624 1334.6 220.1 1324.77 225.855C1315.17 231.609 1310.5 239.641 1310.74 249.951C1310.98 256.665 1313.14 261.46 1317.21 264.337C1321.29 267.214 1325.97 268.653 1331.24 268.653C1336.76 268.653 1341.92 267.454 1346.72 265.056C1351.51 262.659 1355.83 259.542 1359.67 255.706V215.425Z" fill="#336790"/>
<path d="M1618.86 126.951C1615.74 107.051 1608.79 91.9452 1597.99 81.6353C1587.2 71.3253 1573.41 66.2902 1556.62 66.53C1546.3 66.53 1537.19 69.4072 1529.27 75.1616C1521.6 80.916 1517.76 88.3487 1517.76 97.4599C1517.76 108.489 1522.56 117.6 1532.15 124.793C1541.75 131.986 1556.38 139.659 1576.05 147.811C1585.16 151.407 1594.52 155.603 1604.11 160.399C1613.7 165.194 1622.58 170.948 1630.73 177.662C1638.89 184.135 1645.48 191.808 1650.52 200.679C1655.56 209.311 1658.08 219.501 1658.08 231.249C1658.08 245.396 1654.24 257.983 1646.56 269.013C1638.89 280.042 1628.1 288.673 1614.18 294.907C1600.51 300.902 1584.44 303.899 1565.97 303.899C1556.38 303.899 1545.94 302.34 1534.67 299.223C1523.64 296.346 1513.2 292.03 1503.37 286.276L1504.45 301.381H1476.75V217.223H1500.49C1503.85 237.363 1511.53 252.589 1523.52 262.899C1535.75 272.969 1550.26 278.004 1567.05 278.004C1579.76 278.004 1590.08 274.647 1597.99 267.934C1606.15 261.22 1610.23 253.308 1610.23 244.197C1610.23 235.805 1607.23 228.852 1601.23 223.337C1595.47 217.823 1588.16 213.147 1579.28 209.311C1570.65 205.475 1561.78 201.758 1552.66 198.162C1537.31 191.928 1523.4 184.975 1510.93 177.302C1498.69 169.39 1488.98 160.039 1481.78 149.249C1474.59 138.22 1470.99 124.913 1470.99 109.328C1470.99 101.896 1472.43 94.223 1475.31 86.3107C1478.19 78.1587 1482.86 70.7259 1489.34 64.0125C1495.81 57.0593 1504.45 51.4247 1515.24 47.109C1526.04 42.7932 1539.35 40.6353 1555.18 40.6353C1564.77 40.6353 1575.21 42.0739 1586.48 44.9511C1597.99 47.8283 1607.83 52.144 1615.98 57.8984L1614.54 43.1528H1642.61V126.951H1618.86Z" fill="#336790"/>
<path d="M1892.17 126.951C1885.7 87.1499 1865.55 67.0096 1831.73 66.53C1819.26 66.53 1808.34 69.4072 1798.99 75.1616C1789.63 80.916 1781.84 88.5885 1775.6 98.1791C1769.61 107.77 1765.05 118.679 1761.93 130.907C1759.05 143.135 1757.61 155.723 1757.61 168.67C1757.61 189.29 1760.49 207.632 1766.25 223.697C1772.24 239.521 1780.88 251.989 1792.15 261.1C1803.43 270.211 1817.1 274.767 1833.17 274.767C1848.28 274.767 1863.27 270.931 1878.14 263.258C1893.01 255.346 1905.48 244.437 1915.56 230.53L1932.83 246.355C1921.08 262.419 1908.72 274.647 1895.77 283.039C1882.82 291.191 1870.11 296.706 1857.63 299.583C1845.4 302.46 1834.37 303.899 1824.53 303.899C1806.06 303.899 1789.27 300.662 1774.16 294.188C1759.05 287.475 1745.98 278.364 1734.95 266.855C1724.15 255.106 1715.76 241.559 1709.76 226.214C1704.01 210.63 1701.13 193.846 1701.13 175.863C1701.13 159.559 1703.77 143.375 1709.04 127.311C1714.32 111.246 1722.11 96.7406 1732.43 83.7932C1742.98 70.606 1756.17 60.1762 1772 52.5037C1787.84 44.5914 1806.18 40.6353 1827.05 40.6353C1836.41 40.6353 1846.6 42.1937 1857.63 45.3107C1868.91 48.1879 1879.46 52.5037 1889.29 58.2581L1887.86 43.1528H1915.56V126.951H1892.17Z" fill="#336790"/>
<path d="M1972.22 298.144V274.407C1977.73 274.168 1982.29 273.448 1985.89 272.249C1989.73 271.051 1992.6 268.293 1994.52 263.978C1996.68 259.662 1997.76 252.709 1997.76 243.118V105.372C1997.76 98.8985 1997.88 92.6646 1998.12 86.6704C1998.6 80.6762 1998.96 76.1207 1999.2 73.0037C1995.36 73.2435 1990.57 73.4832 1984.81 73.723C1979.05 73.723 1974.85 73.8429 1972.22 74.0827V46.3896H2075.47V70.1265C2070.2 70.3663 2065.64 71.0856 2061.8 72.2844C2057.96 73.4832 2054.97 76.2405 2052.81 80.5563C2050.89 84.6324 2049.93 91.5856 2049.93 101.416V157.521H2148.87V105.372C2148.87 98.8985 2148.99 92.6646 2149.23 86.6704C2149.47 80.6762 2149.83 76.1207 2150.31 73.0037C2146.47 73.2435 2141.67 73.4832 2135.92 73.723C2130.16 73.723 2125.96 73.8429 2123.33 74.0827V46.3896H2226.58V70.1265C2221.31 70.3663 2216.75 71.0856 2212.91 72.2844C2209.07 73.4832 2206.08 76.2405 2203.92 80.5563C2202 84.6324 2201.04 91.5856 2201.04 101.416V239.162C2201.04 245.635 2200.92 251.869 2200.68 257.864C2200.44 263.858 2200.08 268.413 2199.6 271.53C2203.44 271.051 2208.23 270.811 2213.99 270.811C2219.99 270.571 2224.18 270.451 2226.58 270.451V298.144H2123.33V274.407C2128.84 274.168 2133.4 273.448 2137 272.249C2140.83 271.051 2143.71 268.293 2145.63 263.978C2147.79 259.662 2148.87 252.709 2148.87 243.118V184.855L2049.93 185.934V239.162C2049.93 245.635 2049.81 251.869 2049.57 257.864C2049.33 263.858 2048.97 268.413 2048.49 271.53C2052.33 271.051 2057.12 270.811 2062.88 270.811C2068.88 270.571 2073.08 270.451 2075.47 270.451V298.144H1972.22Z" fill="#336790"/>
<path d="M995.534 439.867C995.534 443.505 996.94 446.895 999.751 450.036C1002.64 453.096 1006.12 455.824 1010.17 458.222C1014.3 460.537 1018.4 462.934 1022.45 465.415C1026.5 467.813 1029.93 470.789 1032.74 474.344C1035.64 477.899 1037.08 481.827 1037.08 486.126C1037.08 492.906 1034.56 498.445 1029.52 502.745C1024.56 507.044 1017.82 509.194 1009.3 509.194C1000.78 509.194 992.351 507.582 984 504.357V498.528C992.434 502.745 999.586 504.853 1005.46 504.853C1011.41 504.853 1016.04 503.406 1019.35 500.512C1022.65 497.619 1024.31 493.609 1024.31 488.483C1024.31 485.01 1022.94 481.868 1020.21 479.057C1017.49 476.163 1014.18 473.683 1010.29 471.616C1006.41 469.466 1002.52 467.275 998.635 465.043C994.749 462.81 991.441 459.999 988.713 456.609C985.984 453.137 984.62 448.962 984.62 444.083C984.62 439.205 986.77 434.658 991.069 430.441C995.452 426.225 1001.94 424.116 1010.54 424.116C1016.16 424.116 1023.27 425.398 1031.87 427.961L1030.63 436.394C1019.47 431.599 1009.92 429.201 1001.98 429.201C997.684 431.268 995.534 434.823 995.534 439.867Z" fill="#336790"/>
<path d="M1057.01 451.649L1073.5 495.428L1084.67 464.919L1079.08 451.649H1090.49L1106.99 495.428L1123.11 451.649H1127.95L1105.25 509.318H1103.27L1086.9 470.624L1071.64 509.318H1069.78L1045.6 451.649H1057.01Z" fill="#336790"/>
<path d="M1138.44 507.706V451.649H1148.74V507.706H1138.44ZM1137.2 434.41C1137.2 432.591 1137.78 431.061 1138.94 429.821C1140.18 428.581 1141.67 427.961 1143.4 427.961C1145.22 427.961 1146.75 428.581 1147.99 429.821C1149.31 431.061 1149.98 432.55 1149.98 434.286C1149.98 436.022 1149.31 437.552 1147.99 438.875C1146.75 440.197 1145.26 440.859 1143.53 440.859C1141.79 440.859 1140.3 440.239 1139.06 438.999C1137.82 437.676 1137.2 436.146 1137.2 434.41Z" fill="#336790"/>
<path d="M1179.05 455.369C1176.9 455.369 1175.12 456.196 1173.71 457.85C1172.39 459.421 1171.73 461.239 1171.73 463.306C1171.73 465.291 1172.68 467.234 1174.58 469.135C1176.57 470.954 1178.92 472.608 1181.65 474.096C1184.46 475.502 1187.23 476.99 1189.96 478.561C1192.69 480.132 1195 482.158 1196.91 484.638C1198.89 487.118 1199.88 489.888 1199.88 492.947C1199.88 497.577 1198.02 501.463 1194.3 504.605C1190.58 507.664 1185.5 509.194 1179.05 509.194C1172.68 509.194 1166.85 507.706 1161.56 504.729V500.016C1167.18 502.827 1172.27 504.233 1176.81 504.233C1181.36 504.233 1184.67 503.324 1186.74 501.505C1188.8 499.686 1189.84 497.619 1189.84 495.304C1189.84 492.906 1188.89 490.798 1186.98 488.979C1185.16 487.077 1182.89 485.423 1180.16 484.018C1177.52 482.612 1174.87 481.124 1172.23 479.553C1169.58 477.982 1167.31 475.957 1165.4 473.476C1163.58 470.996 1162.68 468.019 1162.68 464.547C1162.68 460.991 1164.08 457.726 1166.89 454.749C1169.79 451.69 1174.21 450.16 1180.16 450.16C1186.12 450.16 1191.82 451.235 1197.28 453.385L1196.04 461.57C1189.92 458.263 1184.26 456.196 1179.05 455.369Z" fill="#336790"/>
<path d="M1225.19 455.369C1223.04 455.369 1221.26 456.196 1219.86 457.85C1218.54 459.421 1217.87 461.239 1217.87 463.306C1217.87 465.291 1218.83 467.234 1220.73 469.135C1222.71 470.954 1225.07 472.608 1227.8 474.096C1230.61 475.502 1233.38 476.99 1236.11 478.561C1238.83 480.132 1241.15 482.158 1243.05 484.638C1245.04 487.118 1246.03 489.888 1246.03 492.947C1246.03 497.577 1244.17 501.463 1240.45 504.605C1236.73 507.664 1231.64 509.194 1225.19 509.194C1218.83 509.194 1213 507.706 1207.7 504.729V500.016C1213.33 502.827 1218.41 504.233 1222.96 504.233C1227.51 504.233 1230.81 503.324 1232.88 501.505C1234.95 499.686 1235.98 497.619 1235.98 495.304C1235.98 492.906 1235.03 490.798 1233.13 488.979C1231.31 487.077 1229.04 485.423 1226.31 484.018C1223.66 482.612 1221.02 481.124 1218.37 479.553C1215.72 477.982 1213.45 475.957 1211.55 473.476C1209.73 470.996 1208.82 468.019 1208.82 464.547C1208.82 460.991 1210.23 457.726 1213.04 454.749C1215.93 451.69 1220.35 450.16 1226.31 450.16C1232.26 450.16 1237.97 451.235 1243.42 453.385L1242.18 461.57C1236.06 458.263 1230.4 456.196 1225.19 455.369Z" fill="#336790"/>
<path d="M1354.93 509.07H1352.82L1298.5 441.107H1298V507.706H1292.55V425.604H1301.72L1348.98 485.258H1349.47V425.604H1354.93V509.07Z" fill="#336790"/>
<path d="M1401.39 494.56V481.785C1395.44 482.199 1390.56 483.522 1386.76 485.754C1382.95 487.986 1381.05 490.384 1381.05 492.947C1381.05 495.51 1381.71 497.743 1383.04 499.644C1384.36 501.463 1386.05 502.745 1388.12 503.489C1390.85 502.993 1393.74 501.629 1396.8 499.396C1399.86 497.164 1401.39 495.552 1401.39 494.56ZM1411.56 491.211C1411.56 497.081 1413.71 501.546 1418.01 504.605L1411.56 509.318L1401.51 500.264C1394.98 506.217 1388.95 509.194 1383.41 509.194C1379.77 509.194 1376.63 508.036 1373.98 505.721C1371.42 503.406 1370.14 500.512 1370.14 497.04C1370.14 493.485 1371.17 490.55 1373.24 488.234C1375.39 485.919 1378.2 484.142 1381.67 482.902C1387.62 480.669 1394.2 479.264 1401.39 478.685V467.027C1401.39 460.165 1397.42 456.733 1389.48 456.733C1384.94 456.733 1379.56 457.726 1373.36 459.71L1372.25 456.609C1373.9 455.287 1376.75 453.881 1380.8 452.393C1384.94 450.904 1388.86 450.16 1392.58 450.16C1396.31 450.16 1399.41 450.656 1401.89 451.649C1404.45 452.641 1406.31 453.757 1407.47 454.997C1408.71 456.237 1409.66 457.932 1410.32 460.082C1410.98 462.232 1411.35 463.927 1411.44 465.167C1411.52 466.407 1411.56 468.061 1411.56 470.128V491.211Z" fill="#336790"/>
<path d="M1442.86 496.792C1442.86 499.272 1443.35 501.133 1444.34 502.373C1445.34 503.613 1446.99 504.233 1449.31 504.233C1451.62 504.233 1454.39 503.613 1457.61 502.373V505.845C1452.82 508.078 1448.52 509.194 1444.72 509.194C1440.91 509.194 1437.9 508.16 1435.66 506.093C1433.51 503.944 1432.44 500.636 1432.44 496.172V456.113L1422.39 454.129V451.649H1432.44V447.184L1442.86 439.619V451.649H1457.61V456.113H1442.86V496.792Z" fill="#336790"/>
<path d="M1471.27 507.706V451.649H1481.56V507.706H1471.27ZM1470.03 434.41C1470.03 432.591 1470.61 431.061 1471.77 429.821C1473.01 428.581 1474.49 427.961 1476.23 427.961C1478.05 427.961 1479.58 428.581 1480.82 429.821C1482.14 431.061 1482.8 432.55 1482.8 434.286C1482.8 436.022 1482.14 437.552 1480.82 438.875C1479.58 440.197 1478.09 440.859 1476.36 440.859C1474.62 440.859 1473.13 440.239 1471.89 438.999C1470.65 437.676 1470.03 436.146 1470.03 434.41Z" fill="#336790"/>
<path d="M1524.15 450.16C1531.43 450.16 1537.42 452.641 1542.14 457.602C1546.93 462.562 1549.33 469.383 1549.33 478.065C1549.33 483.604 1548.38 488.483 1546.48 492.699C1544.58 496.916 1542.1 500.182 1539.04 502.497C1533.17 506.961 1526.59 509.194 1519.32 509.194C1512.12 509.194 1506.13 506.713 1501.33 501.753C1496.62 496.792 1494.26 489.971 1494.26 481.289C1494.26 475.75 1495.17 470.872 1496.99 466.655C1498.89 462.438 1501.37 459.172 1504.43 456.857C1510.3 452.393 1516.88 450.16 1524.15 450.16ZM1521.67 504.977C1525.31 504.977 1528.41 503.572 1530.97 500.76C1535.61 495.8 1537.92 489.227 1537.92 481.041C1537.92 472.773 1536.51 466.366 1533.7 461.818C1530.89 457.188 1526.3 454.873 1519.94 454.873C1515.22 456.692 1511.63 459.917 1509.15 464.547C1506.75 469.094 1505.55 474.634 1505.55 481.165C1505.55 487.614 1506.87 493.195 1509.52 497.908C1512.16 502.621 1516.22 504.977 1521.67 504.977Z" fill="#336790"/>
<path d="M1573.02 459.586C1576.49 456.279 1579.51 453.881 1582.07 452.393C1584.72 450.904 1587.82 450.16 1591.37 450.16C1594.93 450.16 1598.2 451.566 1601.17 454.377C1604.23 457.188 1605.76 462.025 1605.76 468.887V507.706H1595.22V470.128C1595.22 466.076 1594.47 463.058 1592.99 461.074C1591.58 459.007 1589.1 457.974 1585.55 457.974C1582.07 457.974 1578.02 460.289 1573.39 464.919V507.706H1562.85V468.763C1562.85 463.141 1560.74 458.635 1556.52 455.245L1562.85 450.532L1573.02 459.586Z" fill="#336790"/>
<path d="M1650.29 494.56V481.785C1644.33 482.199 1639.45 483.522 1635.65 485.754C1631.85 487.986 1629.95 490.384 1629.95 492.947C1629.95 495.51 1630.61 497.743 1631.93 499.644C1633.25 501.463 1634.95 502.745 1637.02 503.489C1639.74 502.993 1642.64 501.629 1645.7 499.396C1648.76 497.164 1650.29 495.552 1650.29 494.56ZM1660.46 491.211C1660.46 497.081 1662.61 501.546 1666.9 504.605L1660.46 509.318L1650.41 500.264C1643.88 506.217 1637.84 509.194 1632.3 509.194C1628.66 509.194 1625.52 508.036 1622.88 505.721C1620.31 503.406 1619.03 500.512 1619.03 497.04C1619.03 493.485 1620.07 490.55 1622.13 488.234C1624.28 485.919 1627.09 484.142 1630.57 482.902C1636.52 480.669 1643.09 479.264 1650.29 478.685V467.027C1650.29 460.165 1646.32 456.733 1638.38 456.733C1633.83 456.733 1628.46 457.726 1622.26 459.71L1621.14 456.609C1622.79 455.287 1625.65 453.881 1629.7 452.393C1633.83 450.904 1637.76 450.16 1641.48 450.16C1645.2 450.16 1648.3 450.656 1650.78 451.649C1653.34 452.641 1655.21 453.757 1656.36 454.997C1657.6 456.237 1658.55 457.932 1659.22 460.082C1659.88 462.232 1660.25 463.927 1660.33 465.167C1660.41 466.407 1660.46 468.061 1660.46 470.128V491.211Z" fill="#336790"/>
<path d="M1689.77 423V507.706H1679.35V423H1689.77Z" fill="#336790"/>
<path d="M1741.28 507.706V425.604H1764.72C1774.48 425.604 1783.29 427.671 1791.14 431.805C1795.36 433.955 1799.04 436.642 1802.18 439.867C1805.32 443.091 1807.84 447.225 1809.74 452.269C1811.65 457.23 1812.6 462.769 1812.6 468.887C1812.6 477.651 1810.41 485.051 1806.02 491.087C1798 502.166 1785.02 507.706 1767.08 507.706H1741.28ZM1764.6 503.489C1775.1 503.489 1783.53 500.388 1789.9 494.187C1796.27 487.986 1799.45 478.892 1799.45 466.903C1799.45 457.643 1796.93 449.747 1791.88 443.215C1786.84 436.601 1780.31 432.219 1772.29 430.069C1765.1 430.069 1758.81 430.937 1753.44 432.674V502.373C1756.08 503.117 1759.8 503.489 1764.6 503.489Z" fill="#336790"/>
<path d="M1853.28 494.56V481.785C1847.32 482.199 1842.45 483.522 1838.64 485.754C1834.84 487.986 1832.94 490.384 1832.94 492.947C1832.94 495.51 1833.6 497.743 1834.92 499.644C1836.24 501.463 1837.94 502.745 1840.01 503.489C1842.74 502.993 1845.63 501.629 1848.69 499.396C1851.75 497.164 1853.28 495.552 1853.28 494.56ZM1863.45 491.211C1863.45 497.081 1865.6 501.546 1869.9 504.605L1863.45 509.318L1853.4 500.264C1846.87 506.217 1840.83 509.194 1835.29 509.194C1831.66 509.194 1828.51 508.036 1825.87 505.721C1823.3 503.406 1822.02 500.512 1822.02 497.04C1822.02 493.485 1823.06 490.55 1825.12 488.234C1827.27 485.919 1830.08 484.142 1833.56 482.902C1839.51 480.669 1846.08 479.264 1853.28 478.685V467.027C1853.28 460.165 1849.31 456.733 1841.37 456.733C1836.82 456.733 1831.45 457.726 1825.25 459.71L1824.13 456.609C1825.79 455.287 1828.64 453.881 1832.69 452.393C1836.82 450.904 1840.75 450.16 1844.47 450.16C1848.19 450.16 1851.29 450.656 1853.77 451.649C1856.34 452.641 1858.2 453.757 1859.35 454.997C1860.59 456.237 1861.55 457.932 1862.21 460.082C1862.87 462.232 1863.24 463.927 1863.32 465.167C1863.41 466.407 1863.45 468.061 1863.45 470.128V491.211Z" fill="#336790"/>
<path d="M1894.74 496.792C1894.74 499.272 1895.24 501.133 1896.23 502.373C1897.22 503.613 1898.88 504.233 1901.19 504.233C1903.51 504.233 1906.28 503.613 1909.5 502.373V505.845C1904.71 508.078 1900.41 509.194 1896.6 509.194C1892.8 509.194 1889.78 508.16 1887.55 506.093C1885.4 503.944 1884.32 500.636 1884.32 496.172V456.113L1874.28 454.129V451.649H1884.32V447.184L1894.74 439.619V451.649H1909.5V456.113H1894.74V496.792Z" fill="#336790"/>
<path d="M1949.2 494.56V481.785C1943.25 482.199 1938.37 483.522 1934.57 485.754C1930.76 487.986 1928.86 490.384 1928.86 492.947C1928.86 495.51 1929.52 497.743 1930.85 499.644C1932.17 501.463 1933.86 502.745 1935.93 503.489C1938.66 502.993 1941.55 501.629 1944.61 499.396C1947.67 497.164 1949.2 495.552 1949.2 494.56ZM1959.37 491.211C1959.37 497.081 1961.52 501.546 1965.82 504.605L1959.37 509.318L1949.33 500.264C1942.79 506.217 1936.76 509.194 1931.22 509.194C1927.58 509.194 1924.44 508.036 1921.79 505.721C1919.23 503.406 1917.95 500.512 1917.95 497.04C1917.95 493.485 1918.98 490.55 1921.05 488.234C1923.2 485.919 1926.01 484.142 1929.48 482.902C1935.44 480.669 1942.01 479.264 1949.2 478.685V467.027C1949.2 460.165 1945.23 456.733 1937.3 456.733C1932.75 456.733 1927.37 457.726 1921.17 459.71L1920.06 456.609C1921.71 455.287 1924.56 453.881 1928.61 452.393C1932.75 450.904 1936.68 450.16 1940.4 450.16C1944.12 450.16 1947.22 450.656 1949.7 451.649C1952.26 452.641 1954.12 453.757 1955.28 454.997C1956.52 456.237 1957.47 457.932 1958.13 460.082C1958.79 462.232 1959.16 463.927 1959.25 465.167C1959.33 466.407 1959.37 468.061 1959.37 470.128V491.211Z" fill="#336790"/>
<path d="M2035.32 494.56V481.785C2029.36 482.199 2024.48 483.522 2020.68 485.754C2016.88 487.986 2014.98 490.384 2014.98 492.947C2014.98 495.51 2015.64 497.743 2016.96 499.644C2018.28 501.463 2019.98 502.745 2022.05 503.489C2024.77 502.993 2027.67 501.629 2030.73 499.396C2033.79 497.164 2035.32 495.552 2035.32 494.56ZM2045.49 491.211C2045.49 497.081 2047.64 501.546 2051.93 504.605L2045.49 509.318L2035.44 500.264C2028.91 506.217 2022.87 509.194 2017.33 509.194C2013.69 509.194 2010.55 508.036 2007.91 505.721C2005.34 503.406 2004.06 500.512 2004.06 497.04C2004.06 493.485 2005.1 490.55 2007.16 488.234C2009.31 485.919 2012.12 484.142 2015.6 482.902C2021.55 480.669 2028.12 479.264 2035.32 478.685V467.027C2035.32 460.165 2031.35 456.733 2023.41 456.733C2018.86 456.733 2013.49 457.726 2007.29 459.71L2006.17 456.609C2007.82 455.287 2010.68 453.881 2014.73 452.393C2018.86 450.904 2022.79 450.16 2026.51 450.16C2030.23 450.16 2033.33 450.656 2035.81 451.649C2038.37 452.641 2040.24 453.757 2041.39 454.997C2042.63 456.237 2043.58 457.932 2044.25 460.082C2044.91 462.232 2045.28 463.927 2045.36 465.167C2045.44 466.407 2045.49 468.061 2045.49 470.128V491.211Z" fill="#336790"/>
<path d="M2075.17 459.586C2078.64 456.279 2081.66 453.881 2084.22 452.393C2086.87 450.904 2089.97 450.16 2093.52 450.16C2097.08 450.16 2100.35 451.566 2103.32 454.377C2106.38 457.188 2107.91 462.025 2107.91 468.887V507.706H2097.37V470.128C2097.37 466.076 2096.62 463.058 2095.14 461.074C2093.73 459.007 2091.25 457.974 2087.7 457.974C2084.22 457.974 2080.17 460.289 2075.54 464.919V507.706H2065V468.763C2065 463.141 2062.89 458.635 2058.67 455.245L2065 450.532L2075.17 459.586Z" fill="#336790"/>
<path d="M2169.67 491.087C2169.67 496.792 2171.78 501.339 2176 504.729L2169.67 509.318L2159.5 500.264C2156.2 503.406 2153.22 505.68 2150.58 507.086C2147.93 508.491 2145.2 509.194 2142.39 509.194C2139.58 509.194 2137.1 508.78 2134.95 507.954C2132.8 507.127 2130.52 505.763 2128.13 503.861C2125.81 501.877 2123.91 498.818 2122.42 494.684C2121.02 490.467 2120.31 485.051 2120.31 478.437C2120.31 471.823 2122.26 465.497 2126.14 459.462C2130.11 453.344 2135.53 450.284 2142.39 450.284C2147.52 450.284 2153.1 452.186 2159.13 455.989V423H2169.67V491.087ZM2159.13 495.18V460.578C2154.75 457.684 2150.74 456.237 2147.1 456.237C2142.31 456.237 2138.46 458.511 2135.57 463.058C2132.67 467.523 2131.23 473.145 2131.23 479.925C2131.23 486.705 2132.26 492.162 2134.33 496.296C2136.48 500.347 2139.12 502.786 2142.27 503.613C2145.16 503.365 2147.97 502.662 2150.7 501.505C2153.51 500.347 2155.62 499.19 2157.02 498.032C2158.43 496.792 2159.13 495.841 2159.13 495.18Z" fill="#336790"/>
<path d="M995.534 582.208C995.534 585.846 996.94 589.236 999.751 592.377C1002.64 595.437 1006.12 598.165 1010.17 600.563C1014.3 602.878 1018.4 605.275 1022.45 607.756C1026.5 610.154 1029.93 613.13 1032.74 616.685C1035.64 620.241 1037.08 624.168 1037.08 628.467C1037.08 635.247 1034.56 640.787 1029.52 645.086C1024.56 649.385 1017.82 651.535 1009.3 651.535C1000.78 651.535 992.351 649.923 984 646.698V640.869C992.434 645.086 999.586 647.194 1005.46 647.194C1011.41 647.194 1016.04 645.747 1019.35 642.854C1022.65 639.96 1024.31 635.95 1024.31 630.824C1024.31 627.351 1022.94 624.209 1020.21 621.398C1017.49 618.504 1014.18 616.024 1010.29 613.957C1006.41 611.807 1002.52 609.616 998.635 607.384C994.749 605.151 991.441 602.34 988.713 598.95C985.984 595.478 984.62 591.303 984.62 586.424C984.62 581.546 986.77 576.999 991.069 572.782C995.452 568.566 1001.94 566.457 1010.54 566.457C1016.16 566.457 1023.27 567.739 1031.87 570.302L1030.63 578.735C1019.47 573.94 1009.92 571.542 1001.98 571.542C997.684 573.609 995.534 577.164 995.534 582.208Z" fill="#336790"/>
<path d="M1057.38 619.538C1057.38 628.467 1059.36 634.916 1063.33 638.885C1067.38 642.771 1072.26 644.714 1077.97 644.714C1083.76 644.714 1089.09 643.598 1093.97 641.365V645.706C1087.19 649.592 1080.7 651.535 1074.5 651.535C1066.48 651.535 1059.98 649.096 1055.02 644.218C1050.06 639.34 1047.58 632.27 1047.58 623.01C1047.58 613.75 1050.31 606.35 1055.77 600.811C1061.31 595.271 1067.96 592.501 1075.74 592.501C1081.77 592.501 1086.82 594.899 1090.87 599.695C1094.92 604.407 1096.94 611.022 1096.94 619.538H1057.38ZM1069.41 598.33C1066.52 599.736 1064.04 602.01 1061.97 605.151C1059.9 608.211 1058.54 611.766 1057.88 615.817H1086.9C1086.65 612.345 1085.82 609.368 1084.42 606.888C1083.09 604.407 1081.48 602.588 1079.58 601.431C1076.19 599.364 1072.8 598.33 1069.41 598.33Z" fill="#336790"/>
<path d="M1120.85 650.047H1110.43V593.99H1117.62L1120.48 604.407C1122.13 601.514 1124.74 598.785 1128.29 596.222C1131.93 593.659 1135.65 592.088 1139.45 591.509L1140.69 600.067C1137.63 600.067 1134.16 601.017 1130.28 602.919C1126.47 604.821 1123.33 606.929 1120.85 609.244V650.047Z" fill="#336790"/>
<path d="M1169.39 651.659H1167.53L1143.22 593.99H1154.13L1171.25 637.397L1187.49 593.99H1192.21L1169.39 651.659Z" fill="#336790"/>
<path d="M1202.75 650.047V593.99H1213.05V650.047H1202.75ZM1201.51 576.751C1201.51 574.932 1202.09 573.402 1203.25 572.162C1204.49 570.922 1205.98 570.302 1207.72 570.302C1209.53 570.302 1211.06 570.922 1212.3 572.162C1213.63 573.402 1214.29 574.891 1214.29 576.627C1214.29 578.363 1213.63 579.893 1212.3 581.216C1211.06 582.538 1209.58 583.2 1207.84 583.2C1206.1 583.2 1204.61 582.58 1203.37 581.34C1202.13 580.017 1201.51 578.487 1201.51 576.751Z" fill="#336790"/>
<path d="M1250.68 651.535C1243.48 651.535 1237.49 649.096 1232.69 644.218C1227.98 639.257 1225.62 632.27 1225.62 623.258C1225.62 614.246 1228.15 606.888 1233.19 601.183C1238.32 595.395 1244.81 592.501 1252.66 592.501C1257.04 592.501 1261.96 593.576 1267.42 595.726L1266.18 603.911C1258.9 600.108 1252.66 598.206 1247.45 598.206C1243.15 600.356 1240.05 603.829 1238.15 608.624C1236.25 613.419 1235.3 618.132 1235.3 622.762C1235.3 629.046 1237.12 634.296 1240.75 638.513C1244.48 642.647 1248.9 644.714 1254.03 644.714C1259.15 644.714 1263.86 643.598 1268.16 641.365V645.706C1262.21 649.592 1256.38 651.535 1250.68 651.535Z" fill="#336790"/>
<path d="M1285.81 619.538C1285.81 628.467 1287.79 634.916 1291.76 638.885C1295.81 642.771 1300.69 644.714 1306.39 644.714C1312.18 644.714 1317.52 643.598 1322.39 641.365V645.706C1315.61 649.592 1309.12 651.535 1302.92 651.535C1294.9 651.535 1288.41 649.096 1283.45 644.218C1278.49 639.34 1276.01 632.27 1276.01 623.01C1276.01 613.75 1278.74 606.35 1284.19 600.811C1289.73 595.271 1296.39 592.501 1304.16 592.501C1310.2 592.501 1315.24 594.899 1319.29 599.695C1323.34 604.407 1325.37 611.022 1325.37 619.538H1285.81ZM1297.84 598.33C1294.94 599.736 1292.46 602.01 1290.4 605.151C1288.33 608.211 1286.96 611.766 1286.3 615.817H1315.32C1315.08 612.345 1314.25 609.368 1312.84 606.888C1311.52 604.407 1309.91 602.588 1308.01 601.431C1304.62 599.364 1301.23 598.33 1297.84 598.33Z" fill="#336790"/>
<path d="M1410.92 651.535C1398.1 651.535 1387.31 648.062 1378.55 641.117C1369.78 634.172 1365.4 624.209 1365.4 611.228C1365.4 603.622 1366.85 596.842 1369.74 590.889C1372.63 584.936 1376.44 580.265 1381.15 576.875C1390.66 569.93 1401.32 566.457 1413.15 566.457C1420.01 566.457 1427.16 567.697 1434.6 570.178L1433.36 578.611C1429.48 576.958 1426.46 575.717 1424.31 574.891C1418.11 572.658 1411.87 571.542 1405.58 571.542C1396.9 573.526 1390.2 577.826 1385.49 584.44C1380.86 591.055 1378.55 599.323 1378.55 609.244C1378.55 621.398 1381.73 630.782 1388.09 637.397C1394.46 643.928 1402.85 647.194 1413.27 647.194C1423.69 647.194 1431.46 644.962 1436.59 640.497V647.318C1429.48 650.129 1420.92 651.535 1410.92 651.535Z" fill="#336790"/>
<path d="M1453.31 619.538C1453.31 628.467 1455.3 634.916 1459.26 638.885C1463.32 642.771 1468.19 644.714 1473.9 644.714C1479.69 644.714 1485.02 643.598 1489.9 641.365V645.706C1483.12 649.592 1476.63 651.535 1470.43 651.535C1462.41 651.535 1455.92 649.096 1450.95 644.218C1445.99 639.34 1443.51 632.27 1443.51 623.01C1443.51 613.75 1446.24 606.35 1451.7 600.811C1457.24 595.271 1463.89 592.501 1471.67 592.501C1477.7 592.501 1482.75 594.899 1486.8 599.695C1490.85 604.407 1492.87 611.022 1492.87 619.538H1453.31ZM1465.34 598.33C1462.45 599.736 1459.97 602.01 1457.9 605.151C1455.83 608.211 1454.47 611.766 1453.81 615.817H1482.83C1482.58 612.345 1481.75 609.368 1480.35 606.888C1479.03 604.407 1477.41 602.588 1475.51 601.431C1472.12 599.364 1468.73 598.33 1465.34 598.33Z" fill="#336790"/>
<path d="M1518.52 601.927C1521.99 598.62 1525.01 596.222 1527.57 594.734C1530.22 593.246 1533.32 592.501 1536.87 592.501C1540.43 592.501 1543.69 593.907 1546.67 596.718C1549.73 599.529 1551.26 604.366 1551.26 611.228V650.047H1540.72V612.469C1540.72 608.417 1539.97 605.4 1538.48 603.415C1537.08 601.348 1534.6 600.315 1531.04 600.315C1527.57 600.315 1523.52 602.63 1518.89 607.26V650.047H1508.35V611.104C1508.35 605.482 1506.24 600.976 1502.02 597.586L1508.35 592.873L1518.52 601.927Z" fill="#336790"/>
<path d="M1582.14 639.133C1582.14 641.613 1582.64 643.474 1583.63 644.714C1584.62 645.954 1586.27 646.574 1588.59 646.574C1590.9 646.574 1593.67 645.954 1596.9 644.714V648.186C1592.1 650.419 1587.8 651.535 1584 651.535C1580.2 651.535 1577.18 650.501 1574.95 648.434C1572.8 646.285 1571.72 642.978 1571.72 638.513V598.454L1561.68 596.47V593.99H1571.72V589.525L1582.14 581.96V593.99H1596.9V598.454H1582.14V639.133Z" fill="#336790"/>
<path d="M1614.28 619.538C1614.28 628.467 1616.26 634.916 1620.23 638.885C1624.28 642.771 1629.16 644.714 1634.86 644.714C1640.65 644.714 1645.98 643.598 1650.86 641.365V645.706C1644.08 649.592 1637.59 651.535 1631.39 651.535C1623.37 651.535 1616.88 649.096 1611.92 644.218C1606.96 639.34 1604.48 632.27 1604.48 623.01C1604.48 613.75 1607.21 606.35 1612.66 600.811C1618.2 595.271 1624.86 592.501 1632.63 592.501C1638.67 592.501 1643.71 594.899 1647.76 599.695C1651.81 604.407 1653.84 611.022 1653.84 619.538H1614.28ZM1626.31 598.33C1623.41 599.736 1620.93 602.01 1618.86 605.151C1616.8 608.211 1615.43 611.766 1614.77 615.817H1643.79C1643.54 612.345 1642.72 609.368 1641.31 606.888C1639.99 604.407 1638.38 602.588 1636.48 601.431C1633.09 599.364 1629.7 598.33 1626.31 598.33Z" fill="#336790"/>
<path d="M1677.74 650.047H1667.33V593.99H1674.52L1677.37 604.407C1679.03 601.514 1681.63 598.785 1685.19 596.222C1688.82 593.659 1692.54 592.088 1696.35 591.509L1697.59 600.067C1694.53 600.067 1691.06 601.017 1687.17 602.919C1683.37 604.821 1680.22 606.929 1677.74 609.244V650.047Z" fill="#336790"/>
<path d="M1768.08 593.99V598.454H1753.07V650.047H1742.65V598.454L1732.48 596.47V593.99H1742.78C1743.27 585.226 1745.59 578.074 1749.72 572.534C1753.94 566.995 1759.6 564.225 1766.71 564.225C1769.03 564.225 1772.17 564.721 1776.14 565.713L1774.9 573.774C1773.08 572.782 1770.72 571.914 1767.83 571.17C1765.02 570.426 1762.87 570.054 1761.38 570.054C1758.57 571.459 1756.5 574.601 1755.18 579.479C1753.94 584.357 1753.24 589.194 1753.07 593.99H1768.08Z" fill="#336790"/>
<path d="M1804.42 592.501C1811.69 592.501 1817.69 594.982 1822.4 599.943C1827.2 604.903 1829.59 611.725 1829.59 620.406C1829.59 625.945 1828.64 630.824 1826.74 635.04C1824.84 639.257 1822.36 642.523 1819.3 644.838C1813.43 649.303 1806.86 651.535 1799.58 651.535C1792.39 651.535 1786.39 649.055 1781.6 644.094C1776.88 639.133 1774.53 632.312 1774.53 623.63C1774.53 618.091 1775.44 613.213 1777.26 608.996C1779.16 604.779 1781.64 601.514 1784.7 599.198C1790.57 594.734 1797.14 592.501 1804.42 592.501ZM1801.94 647.318C1805.58 647.318 1808.68 645.913 1811.24 643.102C1815.87 638.141 1818.18 631.568 1818.18 623.382C1818.18 615.114 1816.78 608.707 1813.97 604.159C1811.16 599.529 1806.57 597.214 1800.2 597.214C1795.49 599.033 1791.89 602.258 1789.41 606.888C1787.01 611.435 1785.81 616.975 1785.81 623.506C1785.81 629.955 1787.14 635.536 1789.78 640.249C1792.43 644.962 1796.48 647.318 1801.94 647.318Z" fill="#336790"/>
<path d="M1851.55 650.047H1841.13V593.99H1848.32L1851.17 604.407C1852.83 601.514 1855.43 598.785 1858.99 596.222C1862.63 593.659 1866.35 592.088 1870.15 591.509L1871.39 600.067C1868.33 600.067 1864.86 601.017 1860.97 602.919C1857.17 604.821 1854.03 606.929 1851.55 609.244V650.047Z" fill="#336790"/>
<path d="M1925.39 639.133C1925.39 641.613 1925.88 643.474 1926.87 644.714C1927.87 645.954 1929.52 646.574 1931.83 646.574C1934.15 646.574 1936.92 645.954 1940.14 644.714V648.186C1935.35 650.419 1931.05 651.535 1927.25 651.535C1923.44 651.535 1920.42 650.501 1918.19 648.434C1916.04 646.285 1914.97 642.978 1914.97 638.513V598.454L1904.92 596.47V593.99H1914.97V589.525L1925.39 581.96V593.99H1940.14V598.454H1925.39V639.133Z" fill="#336790"/>
<path d="M1983.44 592.749C1987.24 592.749 1990.63 594.155 1993.61 596.966C1996.59 599.777 1998.08 604.614 1998.08 611.476V650.047H1987.66V612.717C1987.66 608.665 1986.91 605.648 1985.43 603.663C1984.02 601.596 1981.25 600.563 1977.12 600.563C1973.06 600.563 1968.81 602.754 1964.34 607.136V650.047H1953.92V565.341H1963.97V601.927C1970.5 595.809 1976.99 592.749 1983.44 592.749Z" fill="#336790"/>
<path d="M2019.9 619.538C2019.9 628.467 2021.88 634.916 2025.85 638.885C2029.9 642.771 2034.78 644.714 2040.48 644.714C2046.27 644.714 2051.6 643.598 2056.48 641.365V645.706C2049.7 649.592 2043.21 651.535 2037.01 651.535C2028.99 651.535 2022.5 649.096 2017.54 644.218C2012.58 639.34 2010.1 632.27 2010.1 623.01C2010.1 613.75 2012.83 606.35 2018.28 600.811C2023.82 595.271 2030.48 592.501 2038.25 592.501C2044.29 592.501 2049.33 594.899 2053.38 599.695C2057.43 604.407 2059.46 611.022 2059.46 619.538H2019.9ZM2031.93 598.33C2029.03 599.736 2026.55 602.01 2024.48 605.151C2022.42 608.211 2021.05 611.766 2020.39 615.817H2049.41C2049.16 612.345 2048.34 609.368 2046.93 606.888C2045.61 604.407 2044 602.588 2042.1 601.431C2038.71 599.364 2035.32 598.33 2031.93 598.33Z" fill="#336790"/>
<path d="M998.635 751.709V792.388H986.604V710.287H998.635V746.996H1036.21V710.287H1048.24V792.388H1036.21V751.709H998.635Z" fill="#336790"/>
<path d="M1108.61 775.769C1108.61 781.474 1110.76 785.98 1115.06 789.287L1108.61 793.876L1098.57 784.822C1095.18 788.047 1092.16 790.362 1089.51 791.768C1086.87 793.173 1083.73 793.876 1080.09 793.876C1076.53 793.876 1073.23 792.512 1070.17 789.783C1067.19 786.972 1065.7 782.177 1065.7 775.397V736.331H1076.24V776.017C1076.24 779.986 1076.95 783.004 1078.35 785.071C1079.84 787.055 1082.36 788.047 1085.92 788.047C1089.56 788.047 1093.61 785.401 1098.07 780.11V736.331H1108.61V775.769Z" fill="#336790"/>
<path d="M1191.89 734.842C1201.65 734.842 1206.53 742.242 1206.53 757.042V792.388H1196.11V756.05C1196.11 749.105 1194.79 744.888 1192.14 743.4C1190.82 742.656 1188.96 742.284 1186.56 742.284C1184.24 742.284 1181.72 743.028 1178.99 744.516C1176.35 745.922 1174.4 747.534 1173.16 749.353V792.388H1162.62V755.43C1162.62 751.048 1161.96 747.782 1160.64 745.632C1159.31 743.4 1157.37 742.284 1154.81 742.284C1152.25 742.284 1149.76 742.862 1147.37 744.02C1145.05 745.177 1143.19 746.335 1141.79 747.493C1140.38 748.65 1139.68 749.353 1139.68 749.601V792.388H1129.26V753.445C1129.26 747.823 1127.15 743.317 1122.93 739.927L1129.26 735.215L1139.18 744.268C1143.07 741.043 1146.46 738.687 1149.35 737.199C1152.25 735.628 1155.26 734.842 1158.41 734.842C1165.6 734.842 1170.06 738.191 1171.8 744.888C1174.69 741.581 1178 739.1 1181.72 737.447C1185.44 735.711 1188.83 734.842 1191.89 734.842Z" fill="#336790"/>
<path d="M1250.84 779.242V766.468C1244.89 766.881 1240.01 768.204 1236.21 770.436C1232.4 772.669 1230.5 775.066 1230.5 777.629C1230.5 780.192 1231.16 782.425 1232.49 784.326C1233.81 786.145 1235.5 787.427 1237.57 788.171C1240.3 787.675 1243.19 786.311 1246.25 784.078C1249.31 781.846 1250.84 780.234 1250.84 779.242ZM1261.01 775.893C1261.01 781.763 1263.16 786.228 1267.46 789.287L1261.01 794L1250.97 784.947C1244.43 790.899 1238.4 793.876 1232.86 793.876C1229.22 793.876 1226.08 792.718 1223.43 790.403C1220.87 788.088 1219.59 785.195 1219.59 781.722C1219.59 778.167 1220.62 775.232 1222.69 772.917C1224.84 770.602 1227.65 768.824 1231.12 767.584C1237.08 765.351 1243.65 763.946 1250.84 763.367V751.709C1250.84 744.847 1246.87 741.416 1238.94 741.416C1234.39 741.416 1229.01 742.408 1222.81 744.392L1221.7 741.292C1223.35 739.969 1226.2 738.563 1230.25 737.075C1234.39 735.587 1238.32 734.842 1242.04 734.842C1245.76 734.842 1248.86 735.339 1251.34 736.331C1253.9 737.323 1255.76 738.439 1256.92 739.679C1258.16 740.919 1259.11 742.614 1259.77 744.764C1260.43 746.914 1260.81 748.609 1260.89 749.849C1260.97 751.089 1261.01 752.743 1261.01 754.81V775.893Z" fill="#336790"/>
<path d="M1290.7 744.268C1294.17 740.961 1297.19 738.563 1299.75 737.075C1302.4 735.587 1305.5 734.842 1309.05 734.842C1312.61 734.842 1315.87 736.248 1318.85 739.059C1321.91 741.87 1323.44 746.707 1323.44 753.569V792.388H1312.9V754.81C1312.9 750.758 1312.15 747.741 1310.66 745.756C1309.26 743.689 1306.78 742.656 1303.22 742.656C1299.75 742.656 1295.7 744.971 1291.07 749.601V792.388H1280.53V753.445C1280.53 747.823 1278.42 743.317 1274.2 739.927L1280.53 735.215L1290.7 744.268Z" fill="#336790"/>
<path d="M1341.92 792.388V736.331H1352.21V792.388H1341.92ZM1340.68 719.092C1340.68 717.273 1341.26 715.743 1342.41 714.503C1343.65 713.263 1345.14 712.643 1346.88 712.643C1348.7 712.643 1350.23 713.263 1351.47 714.503C1352.79 715.743 1353.45 717.232 1353.45 718.968C1353.45 720.704 1352.79 722.234 1351.47 723.557C1350.23 724.88 1348.74 725.541 1347 725.541C1345.27 725.541 1343.78 724.921 1342.54 723.681C1341.3 722.358 1340.68 720.828 1340.68 719.092Z" fill="#336790"/>
<path d="M1383.27 781.474C1383.27 783.954 1383.76 785.815 1384.75 787.055C1385.75 788.295 1387.4 788.915 1389.72 788.915C1392.03 788.915 1394.8 788.295 1398.03 787.055V790.527C1393.23 792.76 1388.93 793.876 1385.13 793.876C1381.32 793.876 1378.31 792.842 1376.07 790.775C1373.92 788.626 1372.85 785.319 1372.85 780.854V740.795L1362.8 738.811V736.331H1372.85V731.866L1383.27 724.301V736.331H1398.03V740.795H1383.27V781.474Z" fill="#336790"/>
<path d="M1411.68 792.388V736.331H1421.97V792.388H1411.68ZM1410.44 719.092C1410.44 717.273 1411.02 715.743 1412.18 714.503C1413.42 713.263 1414.91 712.643 1416.64 712.643C1418.46 712.643 1419.99 713.263 1421.23 714.503C1422.55 715.743 1423.21 717.232 1423.21 718.968C1423.21 720.704 1422.55 722.234 1421.23 723.557C1419.99 724.88 1418.5 725.541 1416.77 725.541C1415.03 725.541 1413.54 724.921 1412.3 723.681C1411.06 722.358 1410.44 720.828 1410.44 719.092Z" fill="#336790"/>
<path d="M1444.35 761.879C1444.35 770.808 1446.33 777.257 1450.3 781.226C1454.35 785.112 1459.23 787.055 1464.94 787.055C1470.72 787.055 1476.06 785.939 1480.94 783.706V788.047C1474.16 791.933 1467.66 793.876 1461.46 793.876C1453.44 793.876 1446.95 791.437 1441.99 786.559C1437.03 781.681 1434.55 774.612 1434.55 765.351C1434.55 756.091 1437.28 748.691 1442.74 743.152C1448.28 737.612 1454.93 734.842 1462.7 734.842C1468.74 734.842 1473.78 737.24 1477.83 742.036C1481.89 746.748 1483.91 753.363 1483.91 761.879H1444.35ZM1456.38 740.671C1453.48 742.077 1451 744.351 1448.94 747.493C1446.87 750.552 1445.51 754.107 1444.84 758.158H1473.87C1473.62 754.686 1472.79 751.709 1471.39 749.229C1470.06 746.748 1468.45 744.929 1466.55 743.772C1463.16 741.705 1459.77 740.671 1456.38 740.671Z" fill="#336790"/>
<path d="M1510.42 740.051C1508.27 740.051 1506.49 740.878 1505.09 742.532C1503.77 744.103 1503.1 745.922 1503.1 747.989C1503.1 749.973 1504.06 751.916 1505.96 753.818C1507.94 755.636 1510.3 757.29 1513.03 758.778C1515.84 760.184 1518.61 761.672 1521.34 763.243C1524.06 764.814 1526.38 766.84 1528.28 769.32C1530.27 771.8 1531.26 774.57 1531.26 777.629C1531.26 782.259 1529.4 786.145 1525.68 789.287C1521.96 792.346 1516.87 793.876 1510.42 793.876C1504.06 793.876 1498.23 792.388 1492.93 789.411V784.698C1498.56 787.51 1503.64 788.915 1508.19 788.915C1512.74 788.915 1516.04 788.006 1518.11 786.187C1520.18 784.368 1521.21 782.301 1521.21 779.986C1521.21 777.588 1520.26 775.48 1518.36 773.661C1516.54 771.759 1514.27 770.105 1511.54 768.7C1508.89 767.294 1506.25 765.806 1503.6 764.235C1500.95 762.664 1498.68 760.639 1496.78 758.158C1494.96 755.678 1494.05 752.701 1494.05 749.229C1494.05 745.674 1495.46 742.408 1498.27 739.431C1501.16 736.372 1505.58 734.842 1511.54 734.842C1517.49 734.842 1523.2 735.917 1528.65 738.067L1527.41 746.252C1521.29 742.945 1515.63 740.878 1510.42 740.051Z" fill="#336790"/>
</svg>