<svg version="1.1" xmlns="http://www.w3.org/2000/svg" style="display: block;" viewBox="0 0 2048 2048" width="1024" height="1024" preserveAspectRatio="none">
<path transform="translate(0,0)" fill="rgb(24,59,89)" d="M 820.433 1235.55 C 872.341 1233.29 916.32 1273.39 918.861 1325.29 C 921.402 1377.18 881.552 1421.38 829.672 1424.21 C 777.381 1427.07 732.751 1386.83 730.189 1334.52 C 727.628 1282.22 768.113 1237.81 820.433 1235.55 z M 822.485 1392.2 C 856.983 1393.24 885.778 1366.09 886.774 1331.59 C 887.77 1297.09 860.59 1268.32 826.089 1267.37 C 791.642 1266.41 762.932 1293.54 761.937 1327.98 C 760.943 1362.43 788.04 1391.17 822.485 1392.2 z"/>
<path transform="translate(0,0)" fill="rgb(182,75,33)" d="M 1156.92 509.426 C 1164.07 511.323 1260.48 611.196 1275.17 626.124 C 1261.79 641.048 1245.1 656.85 1230.78 671.245 L 1158.95 743.389 C 1153.63 741.838 1052.78 638.373 1041.32 626.337 C 1049.28 616.769 1072.33 595.286 1082 585.709 C 1107.38 560.682 1132.36 535.251 1156.92 509.426 z"/>
<path transform="translate(0,0)" fill="rgb(182,75,33)" d="M 888.846 509.57 C 895.692 512.215 992.452 612.098 1006.28 625.833 C 999.983 634.511 977.487 655.888 968.66 664.719 C 942.431 690.67 916.456 716.877 890.738 743.335 C 886.466 742.308 844.834 698.781 837.977 691.817 C 816.851 670.363 793.661 648.692 773.179 626.759 C 782.232 615.033 802.997 595.372 814.277 584.045 C 838.993 559.08 863.85 534.255 888.846 509.57 z"/>
<path transform="translate(0,0)" fill="rgb(182,75,33)" d="M 1023.36 912.525 C 1035.83 922.503 1062.06 950.189 1073.92 962.382 C 1095.11 984.168 1120.48 1007.69 1140.69 1029.85 C 1124.76 1047.42 1105.16 1066.37 1088.3 1083.22 C 1067.19 1104.49 1045.97 1125.65 1024.64 1146.7 C 1018.09 1141.9 995.978 1118.83 989.032 1111.92 L 906.558 1029.74 L 1023.36 912.525 z"/>
<path transform="translate(0,0)" fill="rgb(182,75,33)" d="M 1023.5 644.463 C 1029.37 647.872 1058.01 677.793 1063.96 683.805 L 1140.88 761.451 C 1102.05 800.116 1063.18 840.091 1024.09 878.297 C 1008.26 863.848 992.64 847.257 977.413 831.982 L 906.777 761.07 C 945.979 722.518 984.4 682.729 1023.5 644.463 z"/>
<path transform="translate(0,0)" fill="rgb(24,59,89)" d="M 1157.5 778.682 C 1163.98 782.993 1185.18 805.477 1192.02 812.135 C 1219.96 839.333 1247.22 868.164 1275.42 895.073 C 1265.61 906.064 1248.66 921.991 1237.91 932.825 L 1158.91 1012.44 C 1155.75 1011.1 1050.43 904.871 1041.07 895.647 C 1078.02 857.365 1119.62 816.187 1157.5 778.682 z"/>
<path transform="translate(0,0)" fill="rgb(24,59,89)" d="M 1292.46 644.096 C 1298.33 648.43 1327.32 678.42 1333.98 685.436 C 1357.39 710.084 1386.03 735.984 1408.49 760.858 C 1380.91 791.401 1349.18 819.862 1320.68 849.669 C 1311.89 858.866 1301.98 868.67 1292.5 877.059 C 1279.82 867.149 1259.49 845.864 1247.61 834.017 L 1175.06 761.389 C 1213.55 722.583 1253.1 681.77 1292.46 644.096 z"/>
<path transform="translate(0,0)" fill="rgb(24,59,89)" d="M 755.356 644.166 C 761.371 646.968 858.058 746.61 872.595 761.218 C 834.146 800.265 795.337 838.955 756.171 877.282 C 739.071 862.55 721.948 844.321 706.024 828.157 C 683.758 805.57 661.322 783.151 638.718 760.901 C 677.394 721.787 716.274 682.874 755.356 644.166 z"/>
<path transform="translate(0,0)" fill="rgb(24,59,89)" d="M 889.019 779.56 C 893.863 780.782 994.281 882.8 1006.72 895.594 C 995.915 907.833 977.634 925.076 965.785 936.943 C 940.715 961.983 915.779 987.157 890.98 1012.47 C 886.498 1010.59 785.094 907.514 773.499 895.46 C 785.107 882.484 801.555 866.926 814.066 854.415 L 889.019 779.56 z"/>
<path transform="translate(0,0)" fill="rgb(182,75,33)" d="M 1261.01 981.061 L 1424.95 981.032 L 1425.08 1145.86 C 1370.85 1145.2 1315.09 1145.89 1260.77 1145.92 C 1261.9 1091.21 1260.28 1035.92 1261.01 981.061 z"/>
<path transform="translate(0,0)" fill="rgb(182,75,33)" d="M 623.098 981.297 C 676.674 979.688 733.591 982.817 787.001 981.237 L 786.99 1145.74 C 771.747 1145.08 752.908 1145.52 737.434 1145.49 L 622.947 1145.72 C 624.464 1093.34 623.264 1034.19 623.098 981.297 z"/>
<path transform="translate(0,0)" fill="rgb(24,59,89)" d="M 493.384 1240.99 C 502.95 1241.21 512.519 1241.28 522.088 1241.21 C 545.98 1276.43 570.458 1320.86 593.602 1357.48 C 607.486 1335.55 621.046 1311.79 634.518 1289.49 C 643.676 1274.34 655.024 1256.67 663.327 1241.42 C 673.209 1241.5 683.092 1241.44 692.972 1241.22 C 691.184 1297.81 692.762 1361.04 692.982 1418.11 L 660.934 1418.07 C 660.497 1395.95 660.598 1373.4 660.488 1351.25 C 660.306 1334.36 660.395 1317.47 660.755 1300.58 C 654.948 1308.15 644.474 1327.03 639.276 1335.83 L 602.142 1398.41 C 596.551 1398.93 590.944 1398.69 585.32 1398.61 C 566.059 1366.24 546.059 1334.31 525.335 1302.85 C 526.566 1339.62 525.465 1381.4 525.973 1418.94 C 515.068 1418.45 503.925 1418.76 492.993 1418.91 C 494.865 1398.31 493.692 1356.22 493.667 1334.24 C 493.638 1307.88 495.09 1266.34 493.384 1240.99 z"/>
<path transform="translate(0,0)" fill="rgb(24,59,89)" d="M 1176.52 1241.19 C 1187.84 1241.53 1199.52 1241.31 1210.94 1241.53 C 1220.29 1257.29 1239.15 1300.76 1247.27 1318.63 C 1261.69 1350.36 1280.68 1386.96 1293.56 1418.6 C 1282.1 1418.13 1270.05 1418.73 1258.15 1418.28 C 1252.36 1408.61 1244.39 1389.2 1239.86 1378.55 C 1232.7 1377.96 1223.83 1378.15 1216.5 1378.12 L 1148.54 1377.87 C 1142.55 1391.21 1136.69 1404.61 1130.96 1418.06 L 1096.13 1418.09 C 1123.56 1360.57 1148.2 1298.28 1176.52 1241.19 z M 1160.77 1350.96 C 1172.04 1351.17 1185.54 1351.88 1196.5 1351.7 C 1206.32 1351.64 1218.33 1351.88 1227.98 1351.18 C 1216.91 1326.9 1205.19 1299.36 1193.52 1275.75 C 1182.33 1300.7 1171.41 1325.77 1160.77 1350.96 z"/>
<path transform="translate(0,0)" fill="rgb(182,75,33)" d="M 1423.86 779.889 C 1425.65 781.747 1425.09 941.77 1425 956.874 C 1407.27 956.297 1385.64 956.918 1367.56 956.95 L 1262.28 956.897 C 1260.27 954.678 1261.09 947.198 1261.2 943.943 C 1265.66 938.256 1275.56 928.673 1281.11 923.015 L 1322.91 881.045 C 1355.51 848.327 1390.51 811.265 1423.86 779.889 z"/>
<path transform="translate(0,0)" fill="rgb(182,75,33)" d="M 623.103 780.42 C 630.143 784.156 672.962 828.529 680.765 836.391 L 787.259 943.602 L 787.514 955.993 C 785 957.549 636.125 956.981 623.009 957.023 C 623.367 900.232 624.528 836.786 623.103 780.42 z"/>
<path transform="translate(0,0)" fill="rgb(24,59,89)" d="M 1012.54 1238.41 C 1037.66 1237.37 1057.96 1243.5 1079.71 1255.22 C 1074.83 1265.16 1072.14 1271.47 1068.2 1281.73 C 1049.28 1269.57 989.094 1249.91 980.055 1289.49 C 979.046 1310.02 1018.56 1314.15 1030.62 1317.34 C 1058.92 1324.83 1088.75 1335.34 1086.7 1369.93 C 1084.05 1414.49 1040.35 1422.2 1004.56 1420.51 C 984.268 1418.56 956.392 1412.34 941.296 1397.68 L 954.315 1372.24 C 975.139 1388.21 997.928 1394.6 1024.36 1392.38 C 1033.4 1391.15 1043.8 1389.47 1049.51 1381.81 C 1066.37 1360.87 1035.05 1348.1 1016.43 1345.09 C 971.747 1337.86 921.816 1314.58 956.46 1261.31 C 966.312 1246.16 993.951 1239.95 1012.54 1238.41 z"/>
<path transform="translate(0,0)" fill="rgb(24,59,89)" d="M 1473.8 1238.41 C 1504.66 1236.32 1533.76 1245.86 1554.7 1268.99 C 1547.37 1275.84 1540.08 1282.74 1532.83 1289.68 C 1509.14 1266.71 1475.77 1258.61 1446.83 1278.36 C 1400.85 1309.74 1417.68 1384.84 1474.5 1391.42 C 1493.22 1393.59 1509.12 1389.01 1524.21 1377.73 C 1526.62 1375.78 1529.93 1371.95 1532.15 1369.56 C 1539.59 1376.07 1547.33 1383.88 1554.48 1390.81 C 1520.77 1428.26 1459.6 1430.58 1420.64 1401.82 C 1369.14 1363.79 1376.55 1276.94 1434.52 1249.27 C 1449.09 1242.31 1457.92 1240.26 1473.8 1238.41 z"/>
<path transform="translate(0,0)" fill="rgb(24,59,89)" d="M 1317.71 1240.97 C 1328.74 1241.83 1340.03 1241.65 1351.08 1241.3 L 1351.01 1418.19 C 1339.66 1418.17 1328.91 1418.18 1317.56 1418.64 C 1318.46 1400.42 1317.77 1375.57 1317.76 1356.83 L 1317.71 1240.97 z"/>
<path transform="translate(0,0)" fill="rgb(182,75,33)" d="M 1066.84 1482.11 C 1081.92 1482.09 1105.15 1479.4 1117.17 1489.64 C 1124.76 1496.1 1117.93 1506.18 1112.29 1511.44 C 1121.27 1517.5 1124.96 1521.59 1122.72 1532.71 C 1112.3 1548.18 1084.28 1542.65 1067.12 1543.39 C 1065.83 1526.14 1066.69 1499.8 1066.84 1482.11 z M 1079.01 1533.96 C 1088.98 1533.9 1101.06 1534.59 1110.2 1531.03 C 1112.01 1527.14 1112.16 1527.32 1111.66 1523.18 C 1106.76 1514.21 1088.31 1516.84 1079.04 1516.99 L 1079.01 1533.96 z M 1078.91 1508.03 C 1087.38 1508.03 1098.78 1508.83 1106.26 1505.74 C 1107.68 1501.67 1108.31 1500.9 1107.32 1496.94 C 1102.39 1489.7 1087.28 1491.87 1078.93 1492.01 L 1078.91 1508.03 z"/>
<path transform="translate(0,0)" fill="rgb(182,75,33)" d="M 1294.97 1481.75 C 1315.58 1482.08 1352.65 1474.88 1347.96 1509.31 C 1347.03 1516.16 1340.61 1520.77 1335.2 1524.19 C 1338.7 1528.55 1348.85 1538.85 1348.51 1543.68 L 1343.79 1544.33 C 1333.3 1543.75 1329.04 1534.13 1323.4 1526.04 L 1307.42 1525.5 C 1307.81 1530.15 1307.43 1538.32 1307.32 1543.3 L 1295.01 1543.99 L 1294.97 1481.75 z M 1307.07 1515.15 C 1316.27 1515.31 1325.76 1516.68 1333.43 1512.01 C 1345.64 1490.41 1320.14 1492.06 1306.96 1491.97 L 1307.07 1515.15 z"/>
<path transform="translate(0,0)" fill="rgb(182,75,33)" d="M 1143.61 1481.93 C 1157.94 1482.2 1183.26 1478.09 1192.18 1490.43 C 1202.48 1504.69 1195.7 1515.46 1183.6 1524.27 C 1186.73 1528.4 1196.91 1539.01 1195.23 1543.4 L 1190.13 1543.83 C 1181.14 1542.49 1176.98 1533.21 1171.93 1525.9 C 1166.41 1525.91 1160.85 1525.56 1155.34 1525.29 C 1155.67 1530.33 1155.35 1538.21 1155.28 1543.5 C 1151.51 1543.2 1147.38 1543.25 1143.57 1543.2 C 1144.53 1526.74 1144.13 1498.6 1143.61 1481.93 z M 1155.18 1515.96 C 1164.25 1515.77 1172.22 1516.42 1180.34 1512.45 C 1197.27 1493.13 1167.01 1492.08 1155.47 1492.1 L 1155.18 1515.96 z"/>
<path transform="translate(0,0)" fill="rgb(182,75,33)" d="M 1238.39 1482.07 L 1250.65 1482.33 C 1260.42 1501.75 1270.19 1523.88 1280.02 1543.91 L 1266.06 1543.76 C 1262.7 1534.93 1263.24 1530.24 1253.25 1529.83 C 1245.2 1529.85 1237.14 1529.83 1229.09 1529.76 C 1227.09 1533.86 1225.07 1539.29 1223.32 1543.6 L 1210.48 1543.82 C 1219.52 1522.66 1228.01 1502.82 1238.39 1482.07 z M 1232.69 1520.81 L 1247.25 1520.94 L 1256.46 1520.88 C 1254.71 1516.75 1246.62 1496.59 1244.38 1494.56 C 1240.81 1502.71 1235.93 1512.78 1232.69 1520.81 z"/>
<path transform="translate(0,0)" fill="rgb(182,75,33)" d="M 797.891 1482.1 C 805.923 1482.24 840.182 1480.68 844.589 1483.69 C 844.705 1488.31 845.353 1486.36 843.135 1489.91 C 836.544 1493.58 818.755 1492 809.705 1491.94 C 809.726 1496.82 809.513 1502.24 809.414 1507.17 C 817.49 1507.19 835.787 1504.29 840.408 1510.7 C 840.182 1514.14 840.777 1514.29 838.996 1516.44 C 832.85 1517.57 816.67 1517.01 809.33 1517.04 C 809.567 1522.88 809.454 1527.29 809.23 1533.1 C 819.885 1533.19 835.028 1532.45 845.139 1533.46 C 846.514 1536.31 846.164 1540.39 846.179 1543.72 L 797.843 1543.56 L 797.891 1482.1 z"/>
<path transform="translate(0,0)" fill="rgb(182,75,33)" d="M 884.022 1481.45 C 894.633 1481.18 900.749 1481.99 910.492 1485.9 L 906.624 1495.46 C 897.498 1492.07 881.643 1486.92 874.885 1497.6 C 876.44 1503.55 885.227 1506.14 890.705 1507.51 C 925.893 1516.31 920.748 1543.13 885.051 1545.11 C 877.41 1544.12 867.536 1543.15 863.285 1536.17 C 863.165 1531.54 863.713 1532.26 866.316 1527.51 C 875.349 1532.66 890.667 1537.79 900.033 1531.03 C 902.127 1527.45 901.693 1529.3 901.6 1525.32 C 895.158 1515.84 866.221 1517.57 863.737 1502.81 C 861.374 1488.77 873.507 1483.62 884.022 1481.45 z"/>
<path transform="translate(0,0)" fill="rgb(182,75,33)" d="M 1391.86 1511.31 C 1397.98 1502.06 1401.99 1491.59 1409.45 1484.22 C 1413.28 1480.43 1417.34 1481.4 1422.58 1481.79 C 1417.83 1490.42 1412.97 1497.95 1407.67 1506.21 C 1397.12 1523 1397.66 1524.4 1397.81 1543.71 C 1393.57 1543.66 1389.21 1543.8 1384.96 1543.89 C 1387 1519.8 1380.55 1515.93 1368.82 1495.59 C 1366.15 1490.96 1363.84 1488.14 1362.33 1482.94 C 1363.74 1481.37 1367.27 1481.69 1370.12 1481.42 C 1377.25 1482.59 1387.52 1504.08 1391.86 1511.31 z"/>
<path transform="translate(0,0)" fill="rgb(182,75,33)" d="M 625.119 1482.12 C 640.858 1482.73 662.974 1480.78 677.846 1482.66 L 678.71 1483.85 C 678.869 1488.04 679.706 1488.73 677.708 1491.15 C 672.643 1492.49 663.709 1491.89 658.08 1491.77 L 658.018 1523.5 L 658.021 1544.17 L 645.854 1543.89 C 646.423 1527.29 646.017 1508.61 646.018 1491.86 C 640.265 1491.92 631.729 1493 626.74 1490.92 C 624.164 1487.44 625.097 1487.59 625.119 1482.12 z"/>
<path transform="translate(0,0)" fill="rgb(182,75,33)" d="M 967.012 1482.11 L 979.367 1482.05 C 979.441 1497.5 980.136 1518.02 979.327 1533.07 C 987.24 1533.05 1003.7 1532.59 1010.87 1533.69 C 1012.31 1536.29 1011.89 1540.76 1011.88 1543.96 L 967.079 1543.94 C 968.024 1527.11 967.643 1499.08 967.012 1482.11 z"/>
<path transform="translate(0,0)" fill="rgb(182,75,33)" d="M 734.639 1482.08 C 738.524 1482.23 742.894 1482.17 746.825 1482.2 C 746.003 1498.91 746.264 1516.47 746.274 1533.27 C 757.53 1533.57 768.72 1533.3 779.976 1533.11 L 779.928 1543.98 C 764.809 1543.73 749.687 1543.7 734.568 1543.89 C 735.592 1524.91 734.269 1501.79 734.639 1482.08 z"/>
<path transform="translate(0,0)" fill="rgb(182,75,33)" d="M 696.947 1482.44 L 708.843 1482.63 C 708.819 1491.83 709.756 1538.08 707.768 1543.15 C 703.447 1543.22 701.455 1543.58 697.485 1542.15 C 695.742 1533.2 696.622 1493.13 696.947 1482.44 z"/>
<path transform="translate(0,0)" fill="rgb(182,75,33)" d="M 1030.16 1482.13 C 1034.15 1482.25 1038.28 1482.19 1042.28 1482.19 C 1042.1 1502.47 1042.06 1522.76 1042.16 1543.04 L 1030.1 1543.15 L 1030.16 1482.13 z"/>
</svg>